<svg xmlns="http://www.w3.org/2000/svg" xmlns:xlink="http://www.w3.org/1999/xlink" width="231" height="230" viewBox="0 0 231 230">
  <defs>
    <clipPath id="clip-At">
      <rect width="231" height="230"/>
    </clipPath>
  </defs>
  <g id="At" clip-path="url(#clip-At)">
    <g id="Layer_2" data-name="Layer 2" transform="translate(-1 -1)">
      <g id="Layer_2-2" data-name="Layer 2">
        <circle id="Ellipse_50" data-name="Ellipse 50" cx="116.13" cy="116.13" r="116.13" transform="translate(0 0)" fill="none"/>
        <path id="Path_191" data-name="Path 191" d="M144,75.31h20.62l-11.15,64.8c-.84,4,1.68,5.26,4.21,4.42,3.58-1.05,9.89-7.15,14.31-13.47,2.94-4.2,7.15-15.14,7.36-25,1.05-35.56-24.41-57.23-60-57.23-38.92,0-66.7,28.19-66.7,66.7C52.69,156.31,83.62,183,123,183c16.63,0,31.14-8.2,43.14-19.14h20.19c-15.57,21.46-38.08,34.92-65,34.92-46.92,0-84.79-35.56-84.79-83.31,0-46.92,37-82.06,83.53-82.06,19.15,0,36.82,5.26,51.33,17.68,14.73,12.41,24.41,28.82,24.41,48.81,0,17.25-4.84,32.4-16.83,44.81-8.42,8.63-25.46,18.51-37.87,18.51-5.26,0-10.52-5-8.84-13.25l-.42-.42c-9.05,8.63-17.25,12.83-25.88,12.83-22.3,0-35.55-17.25-35.55-38.71C70.37,98,87.83,73.63,115,73.63c11.15,0,20.41,3.78,26.72,12.83ZM117.28,93.19c-13,1.06-22.93,13.26-23.77,26.72-.84,13.89,6.1,21.67,14.94,22.94,15.78,2.31,25-13.89,26.09-25.67C135.59,104.56,130.54,92.14,117.28,93.19Z" fill="#0d0d0d"/>
      </g>
    </g>
  </g>
</svg>
