<svg xmlns="http://www.w3.org/2000/svg" xmlns:xlink="http://www.w3.org/1999/xlink" width="231" height="230" viewBox="0 0 231 230">
  <defs>
    <clipPath id="clip-Dribble">
      <rect width="231" height="230"/>
    </clipPath>
  </defs>
  <g id="Dribble" clip-path="url(#clip-Dribble)">
    <g id="Layer_2" data-name="Layer 2" transform="translate(0 -1)">
      <g id="Layer_2-2" data-name="Layer 2">
        <circle id="Ellipse_47" data-name="Ellipse 47" cx="115.63" cy="115.63" r="115.63" transform="translate(0 0)" fill="none"/>
        <path id="Path_184" data-name="Path 184" d="M112.36,87.21C98.3,61.82,84.78,45.62,79.56,39.76a84.33,84.33,0,0,0-46.11,58.4C66.22,98.92,92.38,93.9,112.36,87.21Z" fill="none"/>
        <path id="Path_185" data-name="Path 185" d="M130.7,94.15c2.92,5.89,5.85,12.27,8.71,19.08,2.81-.49,5.55-.87,8.19-1.17a154.74,154.74,0,0,1,52,3.2A83.67,83.67,0,0,0,180,61.67c-5.48,5.66-16.1,15.22-32.75,24.45a177,177,0,0,1-16.55,8.03Z" fill="none"/>
        <path id="Path_186" data-name="Path 186" d="M118.62,71.91c2,3.29,4,6.85,6.08,10.67a166.469,166.469,0,0,0,15.52-7.43c16-8.75,25.93-17.87,30.64-22.77A84,84,0,0,0,92.52,34.85a280.827,280.827,0,0,1,26.1,37.06Z" fill="none"/>
        <path id="Path_187" data-name="Path 187" d="M126.53,116.15c-2.62-6.1-5.32-11.88-8-17.31-20.14,7-46.2,12.4-78.58,12.4-2.67,0-5.41,0-8.17-.13-.08,1.5-.12,3-.12,4.52A83.686,83.686,0,0,0,53.667,172.2C74.61,138.55,102.15,123,126.53,116.15Z" fill="none"/>
        <path id="Path_188" data-name="Path 188" d="M108.162,18.63a89.532,89.532,0,1,0,89.532,89.532A89.532,89.532,0,0,0,108.162,18.63Zm59.386,39.689a77.228,77.228,0,0,1,18.146,49.464,142.826,142.826,0,0,0-48-2.954c-2.437.277-4.966.628-7.559,1.08-2.64-6.286-5.344-12.174-8.039-17.611a163.374,163.374,0,0,0,15.248-7.384,130.66,130.66,0,0,0,30.229-22.558Zm-8.409-8.575c-4.347,4.523-13.541,12.922-28.281,21.017a153.644,153.644,0,0,1-14.325,6.858c-1.92-3.526-3.8-6.812-5.612-9.848A259.21,259.21,0,0,0,86.831,33.564a77.533,77.533,0,0,1,72.309,16.18ZM74.869,38.133c4.818,5.409,17.3,20.362,30.275,43.8C86.683,88.1,62.556,92.738,32.309,92.083a77.837,77.837,0,0,1,42.56-53.95ZM30.62,108.162c0-1.4,0-2.769.111-4.172,2.548.074,5.077.12,7.541.12,29.887,0,53.941-5.012,72.53-11.445,2.511,5.012,5,10.347,7.384,15.977-22.5,6.313-47.923,20.675-67.38,51.688A77.237,77.237,0,0,1,30.62,108.162Zm29.195,60.577c15.368-25.6,36.477-42.015,62.94-48.919a303.105,303.105,0,0,1,16.088,59.58,77.385,77.385,0,0,1-79.028-10.624Zm90.178,4.689a316.317,316.317,0,0,0-15.34-56.073c1.292-.194,2.6-.369,3.914-.526a131.428,131.428,0,0,1,46.233,3.138,77.708,77.708,0,0,1-34.76,53.461Z" transform="translate(7.468 7.468)" fill="#0d0d0d"/>
      </g>
    </g>
  </g>
</svg>
