<svg xmlns="http://www.w3.org/2000/svg" xmlns:xlink="http://www.w3.org/1999/xlink" width="231" height="230" viewBox="0 0 231 230">
  <defs>
    <clipPath id="clip-Dribble-social-B">
      <rect width="231" height="230"/>
    </clipPath>
  </defs>
  <g id="Dribble-social-B" clip-path="url(#clip-Dribble-social-B)">
    <circle id="Ellipse_45" data-name="Ellipse 45" cx="115.63" cy="115.63" r="115.63" transform="translate(0 -1)" fill="none"/>
    <path id="Path_180" data-name="Path 180" d="M115.54,32.93A82.7,82.7,0,1,1,75.71,188c-6.11-3.34-40.25,9.06-40.21,9s13-32.6,9.1-38.91A82.7,82.7,0,0,1,115.54,32.93Z" transform="translate(0 -1)" fill="none"/>
    <g id="Group_16" data-name="Group 16" transform="translate(-5136 -5068)">
      <g id="Ellipse_58" data-name="Ellipse 58" transform="translate(5163 5094)" fill="none" stroke="#f04115" stroke-width="5">
        <circle cx="89" cy="89" r="89" stroke="none"/>
        <circle cx="89" cy="89" r="86.5" fill="none"/>
      </g>
      <g id="Layer_2" data-name="Layer 2" transform="translate(5191 5122)">
        <g id="Layer_2-2" data-name="Layer 2" transform="translate(0 0)">
          <circle id="Ellipse_47" data-name="Ellipse 47" cx="61.378" cy="61.378" r="61.378" transform="translate(0 0)" fill="none"/>
          <path id="Path_184" data-name="Path 184" d="M75.336,64.947A142.47,142.47,0,0,0,57.926,39.76a44.763,44.763,0,0,0-24.476,31C50.845,71.163,64.731,68.5,75.336,64.947Z" transform="translate(-15.694 -18.655)" fill="none"/>
          <path id="Path_185" data-name="Path 185" d="M130.7,78.911c1.55,3.126,3.105,6.513,4.623,10.128,1.492-.26,2.946-.462,4.347-.621a82.138,82.138,0,0,1,27.6,1.7,44.413,44.413,0,0,0-10.4-28.446,74.548,74.548,0,0,1-17.384,12.978,93.964,93.964,0,0,1-8.785,4.262Z" transform="translate(-61.323 -28.935)" fill="none"/>
          <path id="Path_186" data-name="Path 186" d="M106.374,53.007c1.062,1.746,2.123,3.636,3.227,5.664a88.363,88.363,0,0,0,8.238-3.944A67.635,67.635,0,0,0,134.1,42.641,44.588,44.588,0,0,0,92.52,33.336a149.064,149.064,0,0,1,13.854,19.672Z" transform="translate(-43.409 -14.837)" fill="none"/>
          <path id="Path_187" data-name="Path 187" d="M82.018,108.028c-1.391-3.238-2.824-6.306-4.246-9.188-10.691,3.716-24.523,6.582-41.711,6.582-1.417,0-2.872,0-4.337-.069-.042.8-.064,1.592-.064,2.4a44.421,44.421,0,0,0,11.681,30.026C54.458,119.918,69.077,111.664,82.018,108.028Z" transform="translate(-14.855 -46.375)" fill="none"/>
          <path id="Path_188" data-name="Path 188" d="M70.119,18.63a51.489,51.489,0,1,0,51.489,51.489A51.489,51.489,0,0,0,70.119,18.63Zm34.152,22.825A44.413,44.413,0,0,1,114.707,69.9a82.138,82.138,0,0,0-27.6-1.7c-1.4.159-2.856.361-4.347.621-1.518-3.615-3.073-7-4.623-10.128A93.952,93.952,0,0,0,86.9,54.449a75.141,75.141,0,0,0,17.384-12.973Zm-4.836-4.931A68.271,68.271,0,0,1,83.171,48.61a88.359,88.359,0,0,1-8.238,3.944c-1.1-2.028-2.187-3.917-3.227-5.664A149.068,149.068,0,0,0,57.852,27.219a44.588,44.588,0,0,1,41.584,9.305ZM50.972,29.846A142.47,142.47,0,0,1,68.383,55.033C57.767,58.584,43.891,61.249,26.5,60.872A44.763,44.763,0,0,1,50.972,29.846ZM25.525,70.119c0-.807,0-1.592.064-2.4,1.465.042,2.919.069,4.337.069a126.875,126.875,0,0,0,41.711-6.582c1.444,2.882,2.877,5.95,4.246,9.188-12.941,3.631-27.56,11.89-38.749,29.725a44.418,44.418,0,0,1-11.609-30Zm16.79,34.837c8.838-14.725,20.978-24.162,36.2-28.133a174.312,174.312,0,0,1,9.252,34.264,44.5,44.5,0,0,1-45.448-6.11Zm51.86,2.7a181.91,181.91,0,0,0-8.822-32.247c.743-.111,1.5-.212,2.251-.3a75.583,75.583,0,0,1,26.588,1.8A44.689,44.689,0,0,1,94.2,107.652Z" transform="translate(-8.741 -8.741)" fill="#0d0d0d"/>
        </g>
      </g>
    </g>
  </g>
</svg>
