<svg width="88" height="109" viewBox="0 0 88 109" fill="none" xmlns="http://www.w3.org/2000/svg">
<rect x="4" y="4" width="84" height="105" rx="14" fill="#FF5F3A"/>
<rect x="1.5" y="1.5" width="81" height="102" rx="12.5" stroke="black" stroke-width="3"/>
<path d="M23.8906 55.8906H18.0938V52.2344H23.8906C24.7865 52.2344 25.5156 52.0885 26.0781 51.7969C26.6406 51.4948 27.0521 51.0781 27.3125 50.5469C27.5729 50.0156 27.7031 49.4167 27.7031 48.75C27.7031 48.0729 27.5729 47.4427 27.3125 46.8594C27.0521 46.276 26.6406 45.8073 26.0781 45.4531C25.5156 45.099 24.7865 44.9219 23.8906 44.9219H19.7188V64H15.0312V41.25H23.8906C25.6719 41.25 27.1979 41.5729 28.4688 42.2188C29.75 42.8542 30.7292 43.7344 31.4062 44.8594C32.0833 45.9844 32.4219 47.2708 32.4219 48.7188C32.4219 50.1875 32.0833 51.4583 31.4062 52.5312C30.7292 53.6042 29.75 54.4323 28.4688 55.0156C27.1979 55.599 25.6719 55.8906 23.8906 55.8906ZM42.6406 64H37.6875L37.7188 60.3438H42.6406C43.8698 60.3438 44.9062 60.0677 45.75 59.5156C46.5938 58.9531 47.2292 58.1354 47.6562 57.0625C48.0938 55.9896 48.3125 54.6927 48.3125 53.1719V52.0625C48.3125 50.8958 48.1875 49.8698 47.9375 48.9844C47.6979 48.099 47.3385 47.3542 46.8594 46.75C46.3802 46.1458 45.7917 45.6927 45.0938 45.3906C44.3958 45.0781 43.5938 44.9219 42.6875 44.9219H37.5938V41.25H42.6875C44.2083 41.25 45.599 41.5104 46.8594 42.0312C48.1302 42.5417 49.2292 43.276 50.1562 44.2344C51.0833 45.1927 51.7969 46.3385 52.2969 47.6719C52.8073 48.9948 53.0625 50.4688 53.0625 52.0938V53.1719C53.0625 54.7865 52.8073 56.2604 52.2969 57.5938C51.7969 58.9271 51.0833 60.0729 50.1562 61.0312C49.2396 61.9792 48.1406 62.7135 46.8594 63.2344C45.5885 63.7448 44.1823 64 42.6406 64ZM40.3438 41.25V64H35.6562V41.25H40.3438ZM61.1562 41.25V64H56.4688V41.25H61.1562ZM70.2188 50.9688V54.625H59.875V50.9688H70.2188ZM71.3125 41.25V44.9219H59.875V41.25H71.3125Z" fill="black"/>
</svg>
