<svg width="231" height="230" viewBox="0 0 231 230" fill="none" xmlns="http://www.w3.org/2000/svg">
<g clip-path="url(#clip0_1081_2)">
<path d="M115.5 203.5C164.101 203.5 203.5 164.101 203.5 115.5C203.5 66.8989 164.101 27.5 115.5 27.5C66.8989 27.5 27.5 66.8989 27.5 115.5C27.5 164.101 66.8989 203.5 115.5 203.5Z" stroke="#F04115" stroke-width="5"/>
<path d="M115.99 70C108.03 70.0008 100.213 72.1144 93.3359 76.1253C86.459 80.1362 80.7686 85.9008 76.8452 92.8308C72.9219 99.7608 70.906 107.608 71.0034 115.572C71.1007 123.536 73.3078 131.332 77.3993 138.164C79.494 141.599 72.4429 159.336 72.4483 159.347C72.4483 159.347 86.8606 154.115 92.5787 154.115C93.1842 154.08 93.7896 154.186 94.3469 154.425C100.358 157.735 107.046 159.625 113.899 159.95C120.752 160.275 127.588 159.026 133.885 156.3C140.182 153.574 145.772 149.443 150.227 144.223C154.682 139.002 157.885 132.831 159.59 126.181C161.294 119.531 161.456 112.58 160.062 105.858C158.668 99.1359 155.756 92.8222 151.548 87.4001C147.34 81.9779 141.948 77.591 135.785 74.5751C129.622 71.5592 122.85 69.9942 115.99 70ZM142.105 141.153C136.446 146.818 129.099 150.486 121.173 151.602C113.247 152.719 105.173 151.224 98.1716 147.343C96.031 146.214 93.6375 145.652 91.2185 145.71C89.3921 145.745 87.5719 145.937 85.7779 146.281C86.6103 141.382 86.3219 137.386 84.2436 133.934C80.7984 128.219 78.9949 121.664 79.0315 114.989C79.0289 108.908 80.5253 102.921 83.3881 97.5571C86.2509 92.1933 90.3917 87.619 95.4436 84.2393C100.496 80.8596 106.303 78.779 112.35 78.1818C118.398 77.5846 124.499 78.4893 130.114 80.8156C135.729 83.142 140.683 86.8182 144.539 91.5186C148.394 96.2189 151.031 101.798 152.217 107.762C153.402 113.726 153.099 119.891 151.334 125.709C149.569 131.528 146.397 136.821 142.099 141.12L142.105 141.153Z" fill="#0D0D0D"/>
<path d="M104.67 97.2581C106.714 100.025 108.22 103.151 109.109 106.475C109.289 107.46 109.074 108.477 108.511 109.306C108.511 109.306 105.578 110.939 105.937 112.605C107.223 115.672 109.19 118.406 111.689 120.599C114.188 122.792 117.154 124.387 120.36 125.262C121.759 125.589 123.712 120.934 124.299 120.542C124.887 120.15 125.703 119.878 127.477 120.542C129.25 121.206 135.91 122.91 136.024 125.262C136.138 127.614 136.318 135.905 123.075 134.413C109.833 132.922 93.4891 113.008 95.1865 105.914C96.884 98.8205 100.943 97.2581 100.943 97.2581C100.943 97.2581 103.293 95.9515 104.67 97.2581Z" fill="#0D0D0D"/>
</g>
<defs>
<clipPath id="clip0_1081_2">
<rect width="231" height="230" fill="white"/>
</clipPath>
</defs>
</svg>
