<svg xmlns="http://www.w3.org/2000/svg" xmlns:xlink="http://www.w3.org/1999/xlink" width="231" height="230" viewBox="0 0 231 230">
  <defs>
    <clipPath id="clip-Whatsapp">
      <rect width="231" height="230"/>
    </clipPath>
  </defs>
  <g id="Whatsapp" clip-path="url(#clip-Whatsapp)">
    <g id="Layer_2" data-name="Layer 2" transform="translate(0 -1)">
      <g id="Layer_2-2" data-name="Layer 2">
        <circle id="Ellipse_45" data-name="Ellipse 45" cx="115.63" cy="115.63" r="115.63" transform="translate(0 0)" fill="none"/>
        <path id="Path_180" data-name="Path 180" d="M115.54,32.93A82.7,82.7,0,1,1,75.71,188c-6.11-3.34-40.25,9.06-40.21,9s13-32.6,9.1-38.91A82.7,82.7,0,0,1,115.54,32.93Z" fill="none"/>
        <path id="Path_181" data-name="Path 181" d="M115.53,32.93A82.7,82.7,0,0,0,44.6,158.14c3.85,6.31-9.11,38.89-9.1,38.91h0s26.49-9.61,37-9.61a7.17,7.17,0,0,1,3.25.57A82.66,82.66,0,1,0,115.53,32.93Zm48,130.7A67.75,67.75,0,0,1,82.78,175,26.08,26.08,0,0,0,70,172a59.189,59.189,0,0,0-10,1.05c1.53-9,1-16.34-2.82-22.68a66.67,66.67,0,0,1-9.58-34.8,67.91,67.91,0,1,1,115.92,48Z" fill="#0d0d0d"/>
        <path id="Path_175" data-name="Path 175" d="M94.72,83a50.39,50.39,0,0,1,8.16,16.93,7,7,0,0,1-1.1,5.2s-5.39,3-4.73,6.06a40.23,40.23,0,0,0,26.51,23.25c2.57.6,6.16-7.95,7.24-8.67s2.58-1.22,5.84,0,15.5,4.35,15.71,8.67.54,19.55-23.8,16.81S74.17,111.93,77.29,98.9,87.87,83,87.87,83,92.19,80.6,94.72,83Z" fill="#0d0d0d"/>
      </g>
    </g>
  </g>
</svg>
