<svg xmlns="http://www.w3.org/2000/svg" width="1076.872" height="557.993" viewBox="0 0 1076.872 557.993">
  <g id="Group_52" data-name="Group 52" transform="translate(0 0)">
    <rect id="Rectangle_217" data-name="Rectangle 217" width="318.614" height="564.817" transform="translate(383.327 313.103) rotate(-74.21)" fill="#3f3d56"/>
    <circle id="Ellipse_87" data-name="Ellipse 87" cx="4.501" cy="4.501" r="4.501" transform="translate(474.916 14.836)" fill="#f04115"/>
    <circle id="Ellipse_88" data-name="Ellipse 88" cx="4.501" cy="4.501" r="4.501" transform="translate(488.777 18.756)" fill="#f04115"/>
    <circle id="Ellipse_89" data-name="Ellipse 89" cx="4.501" cy="4.501" r="4.501" transform="translate(502.638 22.675)" fill="#f04115"/>
    <path id="Path_329" data-name="Path 329" d="M811.981,378.255a52.587,52.587,0,0,0-21.963.518,52.492,52.492,0,0,0,1.553-22.192,52.186,52.186,0,0,0-19.632,12.669,52.185,52.185,0,0,0-10.09-21.074,52.491,52.491,0,0,0-10.3,19.719,52.587,52.587,0,0,0-18.44-11.944s-3.278,16.672,4.614,30.352c7.024,12.176,20.52,17.874,23.405,18.981l.068.081.036-.041c.293.111.457.168.457.168s.062-.32.147-.892l.162-.2c.011.091.022.174.032.256-.227.532-.341.837-.341.837s.169.038.477.1l.009.054.1-.034c3.038.568,17.519,2.781,29.879-3.913C806.042,394.173,811.981,378.255,811.981,378.255Z" transform="translate(-53.508 -177.197)" fill="#f04115"/>
    <circle id="Ellipse_90" data-name="Ellipse 90" cx="11.703" cy="11.703" r="11.703" transform="translate(719.833 135.064)" fill="#f04115"/>
    <rect id="Rectangle_218" data-name="Rectangle 218" width="365.506" height="7.952" transform="translate(526.777 199.259) rotate(15.79)" fill="#f04115"/>
    <rect id="Rectangle_219" data-name="Rectangle 219" width="63.018" height="63.018" transform="translate(548.917 246.685) rotate(15.79)" fill="#f04115"/>
    <rect id="Rectangle_220" data-name="Rectangle 220" width="63.018" height="63.018" transform="translate(661.536 278.531) rotate(15.79)" fill="#f04115"/>
    <rect id="Rectangle_221" data-name="Rectangle 221" width="63.018" height="63.018" transform="translate(774.155 310.378) rotate(15.79)" fill="#f04115"/>
    <rect id="Rectangle_222" data-name="Rectangle 222" width="46.814" height="5.402" transform="translate(536.136 321.659) rotate(15.79)" fill="#f04115"/>
    <rect id="Rectangle_223" data-name="Rectangle 223" width="46.814" height="5.402" transform="translate(648.756 353.505) rotate(15.79)" fill="#f04115"/>
    <rect id="Rectangle_224" data-name="Rectangle 224" width="46.814" height="5.402" transform="translate(761.373 385.351) rotate(15.79)" fill="#f04115"/>
    <ellipse id="Ellipse_91" data-name="Ellipse 91" cx="301.274" cy="11.139" rx="301.274" ry="11.139" transform="translate(5.941 409.478)" fill="#d0cde1"/>
    <ellipse id="Ellipse_92" data-name="Ellipse 92" cx="234.442" cy="11.139" rx="234.442" ry="11.139" transform="translate(607.988 535.716)" fill="#d0cde1"/>
    <path id="Path_330" data-name="Path 330" d="M778.172,621h67.636v28.285h-39.35v28.285h39.354v28.284h-67.64Zm81.165,0h67.638v24.6H887.622v4.919h39.352v56.571H859.339V681.257h39.352v-4.919H859.336V621Zm81.167,0h67.638v24.6H968.789v4.919h39.352v56.571H940.5V681.257h39.352v-4.919h-39.35V621Z" transform="translate(-50.726 -160.602)" fill="#3f3d56"/>
    <path id="Path_331" data-name="Path 331" d="M220.926,499h27.9v27.567h25.525V499h27.9v83.479h-27.9V554.526H248.83v27.954h-27.9V499Zm118.021,27.684h-24.56V499H391.43v27.684H366.854v55.8h-27.9v-55.8h-.005ZM403.656,499H432.75l17.9,29.332L468.526,499h29.105v83.479H469.843V541.1l-19.2,29.682h-.481L430.957,541.1v41.377h-27.3Zm107.86,0h27.911v55.887h39.238v27.593h-67.15V499Z" transform="translate(-84.621 -168.023)" fill="#3f3d56"/>
    <path id="Path_332" data-name="Path 332" d="M82.165,366.091l-2.289,25.955,18.32-1.528V368.381Z" transform="translate(4.858 22.267)" fill="#a0616a"/>
    <path id="Path_333" data-name="Path 333" d="M67.122,366.091l2.29,25.955-18.32-1.528V368.381Z" transform="translate(3.108 22.267)" fill="#a0616a"/>
    <path id="Path_334" data-name="Path 334" d="M208.851,365.276s6.107,36.642,6.107,41.985-2.29,39.7-6.107,46.565-4.58,9.924-3.053,12.977.763,2.29,0,4.58-2.29,1.527,0,4.58a8.02,8.02,0,0,1,0,9.16c-1.527,2.29,3.053,64.123-3.053,68.7s-7.634,19.848-7.634,19.848l-19.848-2.29V554.591s-4.58-12.214-1.527-19.848,4.58-48.092,4.58-48.092-.763-3.817,0-6.107,0-3.817-1.527-4.58-2.29-3.817-2.29-3.817l-2.29-55.726-9.16,54.962s9.16,74.81,0,84.734v17.557H143.2l3.053-19.084s-6.107-17.557-3.053-21.374-9.16-64.886-7.634-67.177.763-3.053,0-4.58-3.053-3.053-2.29-4.58,0-4.58,0-4.58-14.5-71.757-7.634-78.627S208.851,365.276,208.851,365.276Z" transform="translate(-90.529 -176.156)" fill="#2f2e41"/>
    <path id="Path_335" data-name="Path 335" d="M177.253,568.509s1.527-7.321,13.741-4.806c0,0,3.053,6.332,3.053,9.386s3.053,23.664,3.053,23.664,12.214,20.611-3.053,20.611-20.611-5.343-21.374-10.687.763-6.87-2.29-9.16-4.58-2.29-3.817-5.344,2.29-18.321,2.29-18.321.763-11.451,4.962-8.4l4.2,3.053" transform="translate(-87.939 -164.119)" fill="#2f2e41"/>
    <path id="Path_336" data-name="Path 336" d="M157.884,568.509s-1.527-7.321-13.741-4.806c0,0-3.053,6.332-3.053,9.386s-3.053,23.664-3.053,23.664-12.214,20.611,3.053,20.611,20.611-5.343,21.374-10.687-.763-6.87,2.29-9.16,4.58-2.29,3.817-5.344-2.29-18.321-2.29-18.321-.763-11.451-4.962-8.4l-4.2,3.053" transform="translate(-89.944 -164.119)" fill="#2f2e41"/>
    <circle id="Ellipse_93" data-name="Ellipse 93" cx="20.611" cy="20.611" r="20.611" transform="translate(69.467 7.437)" fill="#a0616a"/>
    <path id="Path_337" data-name="Path 337" d="M162.09,216.319s-8.4,32.825-9.924,33.588,35.115,3.817,35.115,3.817-9.16-28.245,0-32.825Z" transform="translate(-88.806 -185.217)" fill="#a0616a"/>
    <path id="Path_338" data-name="Path 338" d="M157.906,235.175v0l-25.171,17.406,4.58,136.643s33.588-3.817,41.222-3.053S210.6,379.3,210.6,379.3L199.9,250.9a10.547,10.547,0,0,0-9.768-9.645l-4.585-.323s-4.58,11.339-18.359,5.489A16.078,16.078,0,0,1,157.906,235.175Z" transform="translate(-89.985 -184.07)" fill="#d0cde1"/>
    <path id="Path_339" data-name="Path 339" d="M159.525,234,128.4,248.831l-6.107,87.787s-12.214,52.672-2.29,67.94,26.718,16.794,26.718,16.794,22.138-87.787,16.031-117.558S159.525,234,159.525,234Z" transform="translate(-90.996 -184.141)" fill="#575a89"/>
    <path id="Path_340" data-name="Path 340" d="M101.83,358.8V370.25s-4.58,25.191,9.924,24.428,7.634-27.481,7.634-27.481l-4.58-8.4Z" transform="translate(-91.906 -176.55)" fill="#a0616a"/>
    <path id="Path_341" data-name="Path 341" d="M229.362,380.475l-1.527,12.977s7.634,25.955-6.87,26.718-3.976-26.559-3.976-26.559l4.739-14.663Z" transform="translate(-85.085 -175.325)" fill="#a0616a"/>
    <path id="Path_342" data-name="Path 342" d="M182.3,238.085h0A89.9,89.9,0,0,1,219.9,257.628l.132.115-10.687,56.489-1.527,20.611s28.245,100.765-4.58,86.261c0,0-28.245-87.787-24.428-128.246S182.3,238.085,182.3,238.085Z" transform="translate(-87.204 -183.893)" fill="#575a89"/>
    <path id="Path_343" data-name="Path 343" d="M208.719,255.907c.763-.763,9.924,1.061,9.924,1.061s16.794,59.245,16.794,69.169,2.29,66.413,2.29,66.413l-20.15,2.031-16.31-78.487Z" transform="translate(-85.817 -182.82)" fill="#575a89"/>
    <path id="Path_344" data-name="Path 344" d="M135.185,247.981h-5.344s-15.267,6.107-16.031,12.977S92.436,337.3,92.436,337.3L97.78,372.41l19.848-3.053,3.817-38.932,19.848-42.749Z" transform="translate(-92.436 -183.291)" fill="#575a89"/>
    <path id="Path_345" data-name="Path 345" d="M174.872,220.8l.79-5.509c.184-1.284.936-2.972,2.185-2.623,1.063.3,3.377,1.207,3.765.932,1.451-1.028,3.648.77,5.174-.144.639-.383,1.057-1.2,1.8-1.257a2.05,2.05,0,0,1,1.321.6,8.993,8.993,0,0,0,3.42,1.858,3.679,3.679,0,0,0,3.6-.981,1.912,1.912,0,0,1,.637-.61,1.428,1.428,0,0,1,.916.042l3.9,1.062a14.985,14.985,0,0,0-2-12.337,24.815,24.815,0,0,0-5.68-5.563q-3.623-2.756-7.477-5.184a24.285,24.285,0,0,0-9.084-3.952c-3.289-.5-6.971.394-9.039,3A5.821,5.821,0,0,1,167,187.3a2.143,2.143,0,0,0,.138,3.285l-3.3-2.106c-.927.973.884,2.739.094,3.827a2.015,2.015,0,0,1-.888.58,15.119,15.119,0,0,0-4.836,3.044,18.044,18.044,0,0,0-3.809,7.016c-1.965,5.638-3.394,12.1-.6,17.382.317.6,4.5,10.474,5.052,10.859,1.882,1.3.657-1.849,2.005,0,1.057,1.45.859-4.1,2.431-2.881a3.918,3.918,0,0,0,4.264.192c.652-.452.442-2.961.09-5.265a2.715,2.715,0,0,1,3.3-3.054C172.9,220.641,174.839,221.034,174.872,220.8Z" transform="translate(-88.799 -187)" fill="#2f2e41"/>
    <path id="Path_346" data-name="Path 346" d="M117.655,134.02l8.4,69.467h-5.343Z" transform="translate(7.156 8.152)" opacity="0.2"/>
    <path id="Path_347" data-name="Path 347" d="M34.424,108.834l-4.245,26.718,8.062-26.718H34.424Z" transform="translate(1.836 6.62)" opacity="0.2"/>
  </g>
</svg>
