<svg xmlns="http://www.w3.org/2000/svg" xmlns:xlink="http://www.w3.org/1999/xlink" width="270" height="170" viewBox="0 0 270 170">
  <defs>
    <style>
      .cls-1 {
        clip-path: url(#clip-code-pentool);
      }

      .cls-2, .cls-4 {
        fill: none;
      }

      .cls-3 {
        fill: #ff5f3a;
      }

      .cls-4 {
        stroke: #0d0d0d;
        stroke-linecap: round;
        stroke-linejoin: round;
        stroke-width: 2px;
      }
    </style>
    <clipPath id="clip-code-pentool">
      <rect width="270" height="170"/>
    </clipPath>
  </defs>
  <g id="code-pentool" class="cls-1">
    <g id="Group_46" data-name="Group 46" transform="translate(-14532 -9896)">
      <rect id="Rectangle_200" data-name="Rectangle 200" class="cls-2" width="260" height="160" transform="translate(14538 9901)"/>
      <g id="Layer_2" data-name="Layer 2" transform="translate(14570.16 9920.385)">
        <g id="Layer_2-2" data-name="Layer 2" transform="translate(0.84 0.84)">
          <path id="Path_54" data-name="Path 54" class="cls-2" d="M244.678,69.424c-7.717-1.786-49.528,11.6-89.44,54.014-21.674,23.01-84.615-31.154-89.454-54.014C59.525,39.832,105.832,15.41,155.229,15.41S290.8,80.1,244.678,69.424Z" transform="translate(-35.034 -8.579)"/>
          <path id="Path_55" data-name="Path 55" class="cls-3" d="M206.83,44.5,193.567,65.977a1.51,1.51,0,0,0,.145,1.8c2.649,2.888,3.394,7.553.192,12.026a1.768,1.768,0,0,1-.333.342,9.758,9.758,0,0,1-8.608,2.021,1.5,1.5,0,0,0-1.664.684l-23.55,38.721a1.524,1.524,0,0,0,2.161,2.049l51.614-35.28a1.519,1.519,0,0,0,.469-1.978,29.429,29.429,0,0,1,1.491-30.432,1.477,1.477,0,0,0,.248-.938l-2.855-3.39Z" transform="translate(-85.13 -24.031)"/>
          <path id="Path_56" data-name="Path 56" class="cls-3" d="M182.989,35.593a29.431,29.431,0,0,1-26.311,15.359,1.519,1.519,0,0,0-1.538,1.336l-7.5,62.093a1.524,1.524,0,0,0,2.813.97l23.484-38.768a1.51,1.51,0,0,0-.159-1.8,9.79,9.79,0,0,1-2.18-8.57,1.58,1.58,0,0,1,.155-.469c2.5-4.885,7-6.381,10.746-5.363a1.5,1.5,0,0,0,1.66-.694l13.179-21.759L183.092,35.41a1.77,1.77,0,0,0-.1.183Z" transform="translate(-78.809 -19.202)"/>
          <path id="Path_57" data-name="Path 57" class="cls-3" d="M218.81,18.728l1.875.291.239.042.028-.042,14.4,2.241-.192.323,1.716.3L245.1,7.748,227.076,4.63Z" transform="translate(-116.618 -2.853)"/>
          <path id="Path_58" data-name="Path 58" class="cls-3" d="M265.674,11.28,257.54,25.275l1.35,1.58.037-.061L267.8,37.333l1.819,2.157,7.919-13.878Z" transform="translate(-137.19 -6.385)"/>
          <path id="Path_59" data-name="Path 59" class="cls-3" d="M21.668,98.683a1.407,1.407,0,0,1-.239.075l-5.021,1.064v.361l5.031,1.125a1.726,1.726,0,0,1,.22.07l32.875,13.409a1.374,1.374,0,0,1,.853,1.271v9.109a1.369,1.369,0,0,1-1.946,1.242L6.788,104.731A1.374,1.374,0,0,1,6,103.488V96.217a1.364,1.364,0,0,1,.8-1.242L53.446,73.366a1.369,1.369,0,0,1,1.946,1.242v9.1a1.369,1.369,0,0,1-.844,1.266Z" transform="translate(-3.581 -39.295)"/>
          <path id="Path_60" data-name="Path 60" class="cls-3" d="M17.447,220.695l-1.51-3.751a.774.774,0,0,1,.7-1.06l55.988-.755a.769.769,0,0,1,.727.469l1.5,3.751a.769.769,0,0,1-.7,1.055l-55.974.792a.769.769,0,0,1-.727-.5Z" transform="translate(-8.83 -114.663)"/>
          <path id="Path_61" data-name="Path 61" class="cls-3" d="M309.68,81.2V72.445a1.374,1.374,0,0,1,1.927-1.256l49.068,21.67a1.379,1.379,0,0,1,.82,1.256v7.234a1.379,1.379,0,0,1-.816,1.252l-49.073,21.716a1.369,1.369,0,0,1-1.927-1.252v-8.828a1.374,1.374,0,0,1,.863-1.275l35.219-14.013a1.008,1.008,0,0,1,.239-.07l5.021-1.008v-.361l-5.049-1.186-.187-.061L310.552,82.473a1.369,1.369,0,0,1-.872-1.275Z" transform="translate(-164.885 -38.145)"/>
          <path id="Path_62" data-name="Path 62" class="cls-4" d="M202.56,40.71,189.3,62.187a1.5,1.5,0,0,0,.15,1.791c2.649,2.893,3.39,7.558.188,12.03a1.743,1.743,0,0,1-.328.342,9.758,9.758,0,0,1-8.608,2.021,1.5,1.5,0,0,0-1.65.685L155.48,117.777a1.524,1.524,0,0,0,2.161,2.049l51.633-35.289a1.519,1.519,0,0,0,.469-1.978,29.462,29.462,0,0,1,1.491-30.437,1.5,1.5,0,0,0,.253-.938l-2.855-3.394Z" transform="translate(-82.862 -22.018)"/>
          <path id="Path_63" data-name="Path 63" class="cls-4" d="M178.728,31.8a29.424,29.424,0,0,1-26.316,15.364,1.519,1.519,0,0,0-1.533,1.336l-7.5,62.088a1.524,1.524,0,0,0,2.813.975L169.67,72.788A1.5,1.5,0,0,0,169.511,71a9.78,9.78,0,0,1-2.175-8.575,1.7,1.7,0,0,1,.15-.469c2.49-4.9,6.972-6.395,10.76-5.378a1.5,1.5,0,0,0,1.66-.7l13.184-21.735L178.85,31.62A1.2,1.2,0,0,0,178.728,31.8Z" transform="translate(-76.545 -17.189)"/>
          <path id="Path_64" data-name="Path 64" class="cls-4" d="M214.54,14.933l1.875.3.239.042.028-.047L231.09,17.47l-.2.323,1.716.3,8.228-14.14L222.806.84Z" transform="translate(-114.35 -0.84)"/>
          <path id="Path_65" data-name="Path 65" class="cls-4" d="M261.409,7.49,253.27,21.485l1.35,1.58.042-.066,8.875,10.539,1.819,2.161,7.914-13.878Z" transform="translate(-134.922 -4.372)"/>
          <path id="Path_66" data-name="Path 66" class="cls-4" d="M16.513,93.486a1.482,1.482,0,0,1-.244.08l-5.04,1.06v.366l5.035,1.125a1.144,1.144,0,0,1,.216.066L49.36,109.595a1.36,1.36,0,0,1,.853,1.266v9.1a1.374,1.374,0,0,1-1.95,1.242L1.632,99.534A1.369,1.369,0,0,1,.84,98.291V91.024a1.378,1.378,0,0,1,.792-1.247L48.267,68.169a1.374,1.374,0,0,1,1.964,1.256v9.1a1.374,1.374,0,0,1-.844,1.266Z" transform="translate(-0.84 -36.532)"/>
          <path id="Path_67" data-name="Path 67" class="cls-4" d="M19.6,216.724l-1.51-3.774a.769.769,0,0,1,.708-1.055l55.984-.755a.769.769,0,0,1,.727.469l1.5,3.751a.769.769,0,0,1-.708,1.055l-55.974.8A.774.774,0,0,1,19.6,216.724Z" transform="translate(-9.972 -112.544)"/>
          <path id="Path_68" data-name="Path 68" class="cls-4" d="M304.52,76.007V67.24a1.374,1.374,0,0,1,1.927-1.252l49.073,21.67a1.369,1.369,0,0,1,.8,1.247v7.234A1.374,1.374,0,0,1,355.5,97.4l-49.054,21.731a1.374,1.374,0,0,1-1.927-1.252v-8.809a1.369,1.369,0,0,1,.867-1.275L340.6,93.771a2.3,2.3,0,0,1,.239-.07l5.021-1v-.361l-5.049-1.191a1.363,1.363,0,0,1-.183-.056L305.392,77.282A1.374,1.374,0,0,1,304.52,76.007Z" transform="translate(-162.144 -35.383)"/>
        </g>
      </g>
    </g>
  </g>
</svg>
