<svg width="121" height="66" viewBox="0 0 121 66" fill="none" xmlns="http://www.w3.org/2000/svg">
<path d="M66.1155 11.9519L59.0191 23.4431C58.9266 23.5906 58.8841 23.764 58.8981 23.9376C58.9121 24.1111 58.9817 24.2755 59.0967 24.4062C60.5141 25.9514 60.9127 28.4474 59.1994 30.8407C59.1486 30.9095 59.0887 30.971 59.0213 31.0237C58.3929 31.5538 57.6483 31.9281 56.8479 32.116C56.0476 32.3039 55.2142 32.3001 54.4156 32.105C54.2475 32.0616 54.07 32.0738 53.9095 32.1397C53.7489 32.2057 53.6141 32.322 53.5252 32.471L40.9249 53.1886C40.8285 53.3478 40.7896 53.5352 40.8144 53.7196C40.8393 53.904 40.9265 54.0744 41.0615 54.2024C41.1965 54.3304 41.3713 54.4084 41.5567 54.4234C41.7422 54.4384 41.9272 54.3896 42.0811 54.2849L69.6971 35.4084C69.8623 35.2942 69.9794 35.1229 70.0257 34.9274C70.072 34.732 70.0444 34.5263 69.948 34.3501C68.5826 31.8216 67.9351 28.9677 68.0757 26.0975C68.2163 23.2274 69.1397 20.4504 70.7458 18.0675C70.8453 17.9199 70.892 17.7431 70.8785 17.5656L69.3509 15.7518L66.1155 11.9519Z" fill="#FF5F3A"/>
<path d="M56.7414 9.77003C55.368 12.2938 53.3301 14.3937 50.8487 15.8422C48.3672 17.2908 45.5367 18.0328 42.6638 17.9878C42.4624 17.9839 42.2668 18.0548 42.1147 18.1869C41.9627 18.3189 41.8651 18.5027 41.8409 18.7027L37.828 51.9254C37.807 52.1098 37.8495 52.2958 37.9484 52.4528C38.0474 52.6097 38.1969 52.7282 38.3723 52.7887C38.5478 52.8492 38.7386 52.8481 38.9133 52.7855C39.0879 52.7229 39.236 52.6026 39.3331 52.4444L51.8982 31.7017C51.9897 31.5534 52.0309 31.3796 52.0156 31.206C52.0003 31.0324 51.9292 30.8685 51.8131 30.7386C51.2726 30.1194 50.8853 29.3817 50.6827 28.5851C50.4801 27.7885 50.4677 26.9554 50.6467 26.1532C50.661 26.0657 50.689 25.9811 50.7296 25.9023C52.0673 23.2886 54.475 22.4881 56.4793 23.0328C56.6476 23.0753 56.8251 23.0621 56.9852 22.9951C57.1453 22.9282 57.2795 22.8111 57.3674 22.6615L64.4188 11.0194L56.7965 9.67212C56.7768 9.70368 56.7589 9.73637 56.743 9.77003H56.7414Z" fill="#FF5F3A"/>
<path d="M55.6777 9.49398L56.681 9.64968L56.8088 9.67215L56.8238 9.64968L64.5285 10.8487L64.4258 11.0215L65.3439 11.1821L69.7442 3.61915L60.1004 1.95087L55.6777 9.49398Z" fill="#FF5F3A"/>
<path d="M69.7452 3.61908L65.3931 11.1071L66.1154 11.9525L66.1352 11.9198L70.8827 17.5587L71.8559 18.7128L76.093 11.2874L69.7452 3.61908Z" fill="#FF5F3A"/>
<path d="M10.6776 32.7754C10.6362 32.7926 10.5934 32.806 10.5497 32.8156L7.86322 33.3849V33.578L10.555 34.1799C10.5951 34.1898 10.6344 34.2023 10.6728 34.2174L28.2625 41.3919C28.3974 41.4472 28.5129 41.5413 28.5941 41.6624C28.6754 41.7835 28.7188 41.9261 28.7189 42.0719V46.9457C28.7189 47.0688 28.6879 47.1899 28.6288 47.2979C28.5696 47.4058 28.4842 47.4972 28.3805 47.5634C28.2767 47.6296 28.1579 47.6686 28.0351 47.6768C27.9122 47.685 27.7893 47.6621 27.6777 47.6102L2.71605 36.0114C2.58994 35.9519 2.48334 35.8578 2.40869 35.7401C2.33404 35.6223 2.29441 35.4858 2.29443 35.3463V31.456C2.29443 31.3158 2.33479 31.1786 2.4107 31.0608C2.4866 30.9429 2.59484 30.8494 2.72247 30.7915L27.6803 19.2296C27.792 19.1777 27.9149 19.1548 28.0377 19.163C28.1606 19.1712 28.2794 19.2102 28.3831 19.2764C28.4869 19.3426 28.5723 19.434 28.6315 19.5419C28.6906 19.6499 28.7216 19.771 28.7215 19.8941V24.7631C28.7217 24.908 28.6789 25.0497 28.5985 25.1703C28.5181 25.2909 28.4038 25.3849 28.27 25.4405L10.6776 32.7754Z" fill="#FF5F3A"/>
<path d="M5.61023 57.7323L4.80231 55.7253C4.77762 55.6633 4.76829 55.5962 4.77512 55.5298C4.78194 55.4634 4.80472 55.3997 4.8415 55.344C4.87829 55.2883 4.92799 55.2423 4.98638 55.2099C5.04477 55.1776 5.11011 55.1598 5.17684 55.1582L35.1331 54.7542C35.2157 54.7522 35.2969 54.775 35.3663 54.8198C35.4356 54.8645 35.4899 54.9291 35.5221 55.0052L36.3247 57.0121C36.3495 57.074 36.3589 57.1409 36.3521 57.2072C36.3453 57.2735 36.3225 57.3372 36.2856 57.3927C36.2488 57.4482 36.199 57.494 36.1406 57.526C36.0821 57.558 36.0168 57.5754 35.9502 57.5766L6.00135 58.0004C5.9169 58.0011 5.83427 57.9758 5.76468 57.9279C5.69509 57.8801 5.64191 57.812 5.61237 57.7328L5.61023 57.7323Z" fill="#FF5F3A"/>
<path d="M78.4722 24.0365V19.3522C78.4724 19.23 78.503 19.1098 78.5612 19.0025C78.6195 18.8951 78.7036 18.804 78.806 18.7373C78.9083 18.6706 79.0256 18.6304 79.1474 18.6204C79.2691 18.6105 79.3914 18.631 79.5033 18.6802L105.757 30.2747C105.887 30.3324 105.998 30.4265 106.076 30.5458C106.154 30.665 106.195 30.8043 106.196 30.9467V34.8172C106.195 34.959 106.154 35.0976 106.076 35.2164C105.999 35.3352 105.889 35.4292 105.759 35.4871L79.5027 47.1062C79.3911 47.156 79.2688 47.1771 79.147 47.1676C79.0251 47.158 78.9076 47.1181 78.8051 47.0516C78.7026 46.985 78.6184 46.8938 78.5602 46.7863C78.5019 46.6789 78.4715 46.5586 78.4717 46.4363V41.7129C78.4717 41.5661 78.5157 41.4227 78.598 41.3011C78.6803 41.1795 78.7971 41.0853 78.9334 41.0307L97.7773 33.5331C97.8182 33.5154 97.8612 33.5028 97.9052 33.4956L100.592 32.9563V32.7632L97.8902 32.1286L97.7901 32.096L78.9388 24.7176C78.8014 24.6641 78.6833 24.5703 78.6001 24.4486C78.5169 24.3269 78.4723 24.1829 78.4722 24.0355V24.0365Z" fill="#FF5F3A"/>
<path d="M65.0441 11.0011L57.9494 22.4923C57.8575 22.6393 57.8156 22.8121 57.8301 22.9848C57.8446 23.1576 57.9146 23.321 58.0296 23.4506C59.447 24.9985 59.8435 27.4945 58.1302 29.8872C58.0803 29.9559 58.0213 30.0175 57.9547 30.0702C57.3264 30.6003 56.5817 30.9746 55.7814 31.1625C54.9811 31.3504 54.1477 31.3467 53.349 31.1516C53.182 31.1099 53.0061 31.1231 52.8471 31.189C52.6882 31.255 52.5546 31.3704 52.4662 31.5181L39.8541 52.2357C39.7577 52.3949 39.7188 52.5823 39.7436 52.7667C39.7685 52.9511 39.8557 53.1214 39.9907 53.2494C40.1257 53.3775 40.3005 53.4555 40.4859 53.4705C40.6714 53.4855 40.8564 53.4366 41.0103 53.332L68.6365 34.4507C68.8017 34.3364 68.9187 34.1651 68.9651 33.9697C69.0114 33.7742 68.9837 33.5686 68.8874 33.3923C67.5233 30.863 66.8766 28.0089 67.0172 25.1386C67.1578 22.2683 68.0804 19.491 69.6851 17.1071C69.7847 16.9594 69.8323 16.7829 69.8205 16.6052L68.293 14.7892L65.0441 11.0011Z" stroke="#0D0D0D" stroke-width="2" stroke-linecap="round" stroke-linejoin="round"/>
<path d="M55.673 8.81756C54.3 11.3425 52.2619 13.4434 49.7799 14.8925C47.2978 16.3416 44.4664 17.0836 41.5926 17.038C41.3917 17.0347 41.1967 17.106 41.0453 17.238C40.8938 17.37 40.7966 17.5534 40.7724 17.7529L36.7595 50.973C36.7377 51.1576 36.7796 51.3441 36.8784 51.5016C36.9771 51.6592 37.1266 51.7782 37.3023 51.8391C37.4779 51.9 37.6691 51.899 37.8441 51.8364C38.0192 51.7737 38.1675 51.6532 38.2646 51.4946L50.8265 30.7481C50.9174 30.6008 50.9582 30.4281 50.9429 30.2557C50.9275 30.0833 50.8569 29.9204 50.7414 29.7915C50.2006 29.172 49.8133 28.4337 49.6112 27.6365C49.409 26.8394 49.3975 26.0058 49.5777 25.2034C49.5921 25.1163 49.6192 25.0318 49.658 24.9525C50.9902 22.3307 53.3883 21.5308 55.4151 22.075C55.5837 22.1172 55.7615 22.1035 55.9217 22.0359C56.0818 21.9684 56.2158 21.8507 56.3033 21.7005L63.3573 10.0712L55.7383 8.72125C55.7136 8.75131 55.6918 8.78355 55.673 8.81756V8.81756Z" stroke="#0D0D0D" stroke-width="2" stroke-linecap="round" stroke-linejoin="round"/>
<path d="M54.6064 8.54044L55.6097 8.70095L55.7375 8.72342L55.7525 8.69828L63.4615 9.89786L63.3545 10.0707L64.2726 10.2312L68.675 2.66561L59.0292 1L54.6064 8.54044Z" stroke="#0D0D0D" stroke-width="2" stroke-linecap="round" stroke-linejoin="round"/>
<path d="M68.6765 2.66827L64.3218 10.1563L65.0441 11.0017L65.0666 10.9663L69.8151 16.6052L70.7884 17.7615L75.0227 10.3361L68.6765 2.66827Z" stroke="#0D0D0D" stroke-width="2" stroke-linecap="round" stroke-linejoin="round"/>
<path d="M9.38582 31.4732C9.34362 31.4912 9.29994 31.5056 9.25526 31.516L6.55862 32.0832V32.279L9.25259 32.8809C9.29218 32.8889 9.33089 32.9007 9.36816 32.9162L26.9606 40.0923C27.0957 40.1466 27.2114 40.2402 27.2928 40.3609C27.3741 40.4817 27.4174 40.6241 27.4169 40.7697V45.6386C27.4165 45.7618 27.3851 45.8828 27.3256 45.9906C27.2662 46.0985 27.1806 46.1896 27.0767 46.2558C26.9729 46.3219 26.8541 46.3609 26.7312 46.3692C26.6084 46.3775 26.4854 46.3548 26.3736 46.3032L1.42376 34.7092C1.29705 34.6503 1.18982 34.5564 1.11474 34.4385C1.03966 34.3207 0.999844 34.1838 1 34.0441V30.1559C1.00002 30.016 1.03988 29.8789 1.11492 29.7607C1.18996 29.6426 1.29708 29.5482 1.42376 29.4887L26.3757 17.9274C26.4884 17.8738 26.6129 17.8498 26.7374 17.8576C26.8619 17.8654 26.9824 17.9047 27.0875 17.972C27.1927 18.0392 27.2789 18.132 27.3382 18.2418C27.3976 18.3516 27.428 18.4747 27.4266 18.5994V23.4684C27.4264 23.6132 27.3834 23.7547 27.3031 23.8753C27.2228 23.9958 27.1086 24.0899 26.975 24.1457L9.38582 31.4732Z" stroke="#0D0D0D" stroke-width="2" stroke-linecap="round" stroke-linejoin="round"/>
<path d="M6.15141 56.7413L5.34348 54.722C5.31857 54.6598 5.30921 54.5925 5.31623 54.5259C5.32325 54.4593 5.34643 54.3954 5.38377 54.3397C5.4211 54.2841 5.47145 54.2384 5.53045 54.2067C5.58945 54.1749 5.6553 54.1581 5.7223 54.1576L35.6765 53.7536C35.759 53.7516 35.8402 53.7744 35.9096 53.8192C35.979 53.8639 36.0333 53.9285 36.0654 54.0045L36.868 56.0115C36.8929 56.0737 36.9023 56.141 36.8953 56.2077C36.8882 56.2743 36.8651 56.3382 36.8277 56.3938C36.7904 56.4495 36.74 56.4951 36.681 56.5269C36.622 56.5586 36.5562 56.5755 36.4892 56.576L6.54039 57.004C6.45658 57.0047 6.37454 56.98 6.30508 56.9331C6.23563 56.8862 6.18205 56.8193 6.15141 56.7413V56.7413Z" stroke="#0D0D0D" stroke-width="2" stroke-linecap="round" stroke-linejoin="round"/>
<path d="M77.1778 22.7358V18.045C77.1783 17.9231 77.2091 17.8031 77.2676 17.6961C77.326 17.589 77.4101 17.4981 77.5124 17.4317C77.6147 17.3652 77.7319 17.3253 77.8535 17.3154C77.975 17.3055 78.0972 17.3261 78.2088 17.3752L104.465 28.9697C104.593 29.0281 104.701 29.1221 104.777 29.2404C104.853 29.3587 104.893 29.4963 104.893 29.6369V33.5074C104.894 33.6503 104.852 33.7903 104.774 33.9101C104.697 34.03 104.585 34.1245 104.455 34.1821L78.2083 45.8092C78.0966 45.8583 77.9745 45.8789 77.8529 45.869C77.7314 45.8591 77.6141 45.8192 77.5119 45.7527C77.4096 45.6863 77.3254 45.5954 77.267 45.4883C77.2086 45.3813 77.1778 45.2613 77.1772 45.1394V40.4261C77.1771 40.279 77.2213 40.1352 77.304 40.0135C77.3868 39.8918 77.5042 39.7979 77.6411 39.7439L96.4823 32.2404C96.5242 32.2256 96.5669 32.2131 96.6102 32.203L99.2967 31.6679V31.4748L96.5952 30.8375C96.5619 30.8298 96.5292 30.8198 96.4973 30.8076L77.6443 23.418C77.5071 23.3642 77.3893 23.2703 77.3061 23.1487C77.2229 23.027 77.1782 22.8832 77.1778 22.7358V22.7358Z" stroke="#0D0D0D" stroke-width="2" stroke-linecap="round" stroke-linejoin="round"/>
</svg>
