<svg xmlns="http://www.w3.org/2000/svg" width="634.875" height="460.341" viewBox="0 0 634.875 460.341">
  <g id="Group_7" data-name="Group 7" transform="translate(-642.246 -291.245)">
    <g id="Group_3" data-name="Group 3" transform="translate(1049 300.007)" opacity="0.2">
      <path id="Path_9" data-name="Path 9" d="M947.372,757.9a30.781,30.781,0,0,1-.6,5.018q-16.59-2.649-33.42-4.738v-1.362a26.825,26.825,0,0,1,3.978-13.479c3.3-5.175,8.254-8.419,13.726-8.254s10.235,3.723,13.206,9.079A26.85,26.85,0,0,1,947.372,757.9Z" transform="translate(-853.787 -330.546)" fill="#3f3d56"/>
      <ellipse id="Ellipse_9" data-name="Ellipse 9" cx="22.269" cy="17.011" rx="22.269" ry="17.011" transform="translate(59.778 421.368) rotate(-88.19)" fill="#3f3d56"/>
      <ellipse id="Ellipse_10" data-name="Ellipse 10" cx="22.269" cy="17.011" rx="22.269" ry="17.011" transform="translate(60.636 394.163) rotate(-88.19)" fill="#3f3d56"/>
      <ellipse id="Ellipse_11" data-name="Ellipse 11" cx="22.269" cy="17.011" rx="22.269" ry="17.011" transform="translate(61.502 366.958) rotate(-88.19)" fill="#3f3d56"/>
      <ellipse id="Ellipse_12" data-name="Ellipse 12" cx="22.269" cy="17.011" rx="22.269" ry="17.011" transform="translate(61.407 338.576) rotate(-88.282)" fill="#3f3d56"/>
      <path id="Path_10" data-name="Path 10" d="M863.417,374.8a81.926,81.926,0,0,1-6.034-9.517l44.9-5.926L853.958,358.2a81.631,81.631,0,0,1,.479-64.578L918.2,329.282,859.81,283.457a81.482,81.482,0,1,1,131.624,95.382,81.472,81.472,0,0,1,8.823,15.146l-58.941,28.3,62.49-18.819a81.507,81.507,0,0,1-15.542,76.059,81.482,81.482,0,1,1-128.017-4.036,81.507,81.507,0,0,1,3.169-100.7Z" transform="translate(-841.186 -244.965)" fill="#0d0d0d"/>
      <path id="Path_11" data-name="Path 11" d="M1007.289,468.55a81.169,81.169,0,0,1-18.984,49.8,81.482,81.482,0,1,1-128.017-4.036C849.772,500.113,1007.578,459.413,1007.289,468.55Z" transform="translate(-841.193 -283.775)" fill="#0d0d0d" opacity="0.1"/>
    </g>
    <g id="Group_1" data-name="Group 1" transform="translate(767.704 488.269)" opacity="0.2">
      <path id="Path_3" data-name="Path 3" d="M687.638,749.289a15.671,15.671,0,0,1-.305,2.649q-8.617-1.37-17.333-2.476v-.71a13.933,13.933,0,0,1,2.063-7c1.7-2.691,4.284-4.375,7.131-4.284s5.315,1.931,6.842,4.713a13.924,13.924,0,0,1,1.6,7.106Z" transform="translate(-638.999 -527.224)" fill="#0d0d0d"/>
      <ellipse id="Ellipse_1" data-name="Ellipse 1" cx="11.564" cy="8.832" rx="11.564" ry="8.832" transform="translate(31.096 218.963) rotate(-88.19)" fill="#0d0d0d"/>
      <ellipse id="Ellipse_2" data-name="Ellipse 2" cx="11.564" cy="8.832" rx="11.564" ry="8.832" transform="translate(31.546 204.832) rotate(-88.19)" fill="#0d0d0d"/>
      <ellipse id="Ellipse_3" data-name="Ellipse 3" cx="11.564" cy="8.832" rx="11.564" ry="8.832" transform="translate(31.989 190.701) rotate(-88.19)" fill="#0d0d0d"/>
      <ellipse id="Ellipse_4" data-name="Ellipse 4" cx="11.564" cy="8.832" rx="11.564" ry="8.832" transform="translate(32.431 176.57) rotate(-88.19)" fill="#0d0d0d"/>
      <path id="Path_4" data-name="Path 4" d="M644.02,550.266a41,41,0,0,1-3.136-4.952l23.325-3.079-25.108-.6a42.409,42.409,0,0,1,.256-33.544l33.115,18.53-30.333-23.8a42.326,42.326,0,1,1,68.375,49.523,41.929,41.929,0,0,1,4.581,7.866L684.481,574.9l32.462-9.764a42.375,42.375,0,0,1-8.105,39.544,42.326,42.326,0,1,1-66.493-2.1A42.326,42.326,0,0,1,644,550.266Z" transform="translate(-632.44 -482.747)" fill="#0d0d0d"/>
      <path id="Path_5" data-name="Path 5" d="M718.742,598.985a42.1,42.1,0,0,1-9.9,25.868,42.326,42.326,0,1,1-66.493-2.1C636.922,615.385,718.891,594.239,718.742,598.985Z" transform="translate(-632.44 -502.924)" fill="#0d0d0d" opacity="0.1"/>
    </g>
    <g id="Group_2" data-name="Group 2" transform="translate(642.246 488.269)" opacity="0.2">
      <path id="Path_6" data-name="Path 6" d="M535.638,749.289a15.684,15.684,0,0,1-.305,2.649q-8.617-1.37-17.333-2.476v-.71a13.931,13.931,0,0,1,2.063-7c1.7-2.691,4.284-4.375,7.131-4.284s5.315,1.931,6.842,4.713a13.924,13.924,0,0,1,1.6,7.106Z" transform="translate(-486.999 -527.224)" fill="#0d0d0d"/>
      <ellipse id="Ellipse_5" data-name="Ellipse 5" cx="11.564" cy="8.832" rx="11.564" ry="8.832" transform="translate(31.086 218.967) rotate(-88.19)" fill="#0d0d0d"/>
      <ellipse id="Ellipse_6" data-name="Ellipse 6" cx="11.564" cy="8.832" rx="11.564" ry="8.832" transform="translate(31.537 204.836) rotate(-88.19)" fill="#0d0d0d"/>
      <ellipse id="Ellipse_7" data-name="Ellipse 7" cx="11.564" cy="8.832" rx="11.564" ry="8.832" transform="translate(31.979 190.704) rotate(-88.19)" fill="#0d0d0d"/>
      <ellipse id="Ellipse_8" data-name="Ellipse 8" cx="11.564" cy="8.832" rx="11.564" ry="8.832" transform="translate(32.421 176.573) rotate(-88.19)" fill="#0d0d0d"/>
      <path id="Path_7" data-name="Path 7" d="M492.02,550.266a41,41,0,0,1-3.136-4.952l23.325-3.079-25.108-.6a42.409,42.409,0,0,1,.256-33.544l33.115,18.53-30.333-23.8a42.326,42.326,0,1,1,68.375,49.523,41.932,41.932,0,0,1,4.581,7.866L532.481,574.9l32.462-9.764a42.375,42.375,0,0,1-8.105,39.544,42.326,42.326,0,1,1-66.493-2.1A42.326,42.326,0,0,1,492,550.266Z" transform="translate(-480.44 -482.747)" fill="#0d0d0d"/>
      <path id="Path_8" data-name="Path 8" d="M566.742,598.985a42.094,42.094,0,0,1-9.9,25.868,42.326,42.326,0,1,1-66.493-2.1C484.922,615.385,566.891,594.239,566.742,598.985Z" transform="translate(-480.44 -502.924)" fill="#0d0d0d" opacity="0.1"/>
    </g>
    <g id="Group_5" data-name="Group 5" transform="translate(672.007 291.245)">
      <path id="Path_45" data-name="Path 45" d="M501.894,558.94v12.071H441.5l-160.456-201V360.52h33.637Z" transform="translate(-213.919 -360.52)" fill="#f1c0c0"/>
      <path id="Path_46" data-name="Path 46" d="M501.894,558.94v12.071H441.5l-160.456-201V360.52h33.637Z" transform="translate(-213.919 -360.52)" fill="#f95606" opacity="0.51"/>
      <path id="Path_47" data-name="Path 47" d="M501.894,558.94v12.071H441.5l-160.456-201V360.52L442.364,558.94Z" transform="translate(-213.919 -360.52)" fill="#cd301a" opacity="0.43"/>
      <path id="Path_48" data-name="Path 48" d="M311.933,736.539a4.2,4.2,0,0,1-3.669,4.943c-3.893,1.316-8.024,2.619-10.783,5.6s-3.3,8.514,0,10.937a10.63,10.63,0,0,0,5.6,1.526c6.344.434,12.953.35,18.709-2.339,4.117-1.9,8-5.153,12.519-4.859,2.339.14,4.831,1.232,6.918.168s2.675-4.033,2.689-6.512a48.215,48.215,0,0,0-2.311-15.25c-.21-.672-9.117-1.19-10.181-1.4l-10.8-1.4c-2.045-.266-6.456-1.806-8.066-.1S311.933,734.509,311.933,736.539Z" transform="translate(-223.778 -336.661)" fill="#ff3506"/>
      <path id="Path_49" data-name="Path 49" d="M353.267,714.815a33.823,33.823,0,0,0,2.213,7.338c1.5,3.809,3.417,7.856,7.086,9.7,3.333,1.667,7.422,1.064,10.811-.518a8.906,8.906,0,0,0,3.6-2.731,10.839,10.839,0,0,0,1.4-6.288c0-5.419-.322-11.021-2.8-15.838-2.129-4.2-5.84-7.814-5.9-12.463l-12.757,2.465a3.64,3.64,0,0,0-1.876.742,3.234,3.234,0,0,0-.812,1.526A41.688,41.688,0,0,0,353.267,714.815Z" transform="translate(-200.681 -349.89)" fill="#ff3506"/>
      <path id="Path_50" data-name="Path 50" d="M244.438,620.482c-.532,4.509-.308,9.341,2.045,13.234s7.31,6.47,11.6,4.915a1.7,1.7,0,0,0,1.05-.8,1.975,1.975,0,0,0-.182-1.4,20.669,20.669,0,0,1,.434-15.572c.28-.644.882-1.4,1.54-1.148a1.4,1.4,0,0,1,.63.644,7.324,7.324,0,0,1,.98,3.865,14.37,14.37,0,0,0-.112,3.711c.266,1.2,1.554,2.339,2.675,1.82a2.8,2.8,0,0,0,1.274-1.806c3.123-9.032,1.709-18.905.28-28.358a1.485,1.485,0,0,0-1.666-1.555c-6.61-.658-10.223-2.24-14,3.907C247.729,607.123,244.438,614.25,244.438,620.482Z" transform="translate(-244.199 -388.593)" fill="#ff3506"/>
      <path id="Path_51" data-name="Path 51" d="M300.711,598.61c-1.96,8.15-3.935,16.4-4.061,24.773a113.813,113.813,0,0,0,1.176,15.586L299.3,651.1c.5,4.089.994,8.164,1.708,12.211a32.429,32.429,0,0,1,.742,6.344,33.979,33.979,0,0,1-.994,6.232,72.812,72.812,0,0,0-1.47,13.023c-.154,7,.714,14,1.26,21.006a233.935,233.935,0,0,1-.49,41.9,15.712,15.712,0,0,0,2.3,10.8,13.889,13.889,0,0,1,2.031,3.333c1.05,3.207-1.4,6.414-2.031,9.7a9.8,9.8,0,0,0,8.15,11.2c11.2,1.33,22.714.728,32.811,5.853,1.064-3.109-1.26-6.638-.2-9.8.672-1.96,2.521-3.235,3.781-4.887a14.228,14.228,0,0,0,2.409-8.542,31.214,31.214,0,0,0-2.073-11.581c-1.19-3.081-2.9-6.12-2.8-9.425,0-1.624.574-3.333-.084-4.831a7.55,7.55,0,0,0-1.807-2.255,28.47,28.47,0,0,1-7.324-16.594,76.431,76.431,0,0,1,.588-18.4c.686-5.8,1.61-11.917,5.293-16.44a105.491,105.491,0,0,1,2.955-40.961c.364-1.232.938-2.661,2.2-2.955a3.138,3.138,0,0,1,2.689,1.064c2.2,2.059,3.249,5.041,4.2,7.9,1.05,3.095,2.115,6.4,1.316,9.565-.336,1.4-1.008,2.633-1.4,3.977a11.791,11.791,0,0,0,.42,8.22,7.9,7.9,0,0,1,1.008,3.095,8.571,8.571,0,0,1-.84,2.689,12.379,12.379,0,0,0,1.162,10.013,36.254,36.254,0,0,0,6.54,8.024,29.408,29.408,0,0,0,.91,16.188,2.045,2.045,0,0,1,.182,1.555c-.252.532-.9.728-1.4,1.106-1.4,1.148-.532,3.319.406,4.817a110.479,110.479,0,0,0,8.5,11.791c2.8,3.347,2.549,9.8,6.722,11.007a12.6,12.6,0,0,0,5.321,0c4.117-.63,8.71-1.82,10.727-5.461.826-1.5,1.162-3.319,2.451-4.439s2.955-1.316,3.669-2.661-.084-3.109.154-4.663,1.6-2.8,2.031-4.439c1.036-3.781-3.375-6.89-3.977-10.755-.868-5.6,6.19-9.8,5.9-15.4-.616-12.169-1.008-24.395-1.638-36.564a263.655,263.655,0,0,1-.336-32.755c.49-6.792,1.4-13.906-1.092-20.221-3.585-8.906-13.472-13.906-23.036-14.858s-19.1,1.316-28.582,2.8a180.649,180.649,0,0,1-47.543.994Z" transform="translate(-223.199 -389.701)" fill="#0d0d0d"/>
      <ellipse id="Ellipse_14" data-name="Ellipse 14" cx="22.434" cy="22.434" rx="22.434" ry="22.434" transform="translate(83.506 30.192)" fill="#be6f72"/>
      <path id="Path_52" data-name="Path 52" d="M316,508.906a9.564,9.564,0,0,1-9.144,5.784c-.812,3.361,1.134,6.75,3.361,9.4a39.883,39.883,0,0,0,38.174,13.093,18.837,18.837,0,0,0,7.52-3.137,16.678,16.678,0,0,0,5.742-9.943,49.426,49.426,0,0,0,.546-11.693,3.025,3.025,0,0,0-.616-2.157,3.081,3.081,0,0,0-1.961-.644c-4.733-.42-9.677-.6-13.836-2.927s-7.114-7.576-5.111-11.889c-.322.672-8.5.994-9.579,1.134-3.375.476-6.75,1.008-10.111,1.624a18.387,18.387,0,0,0-4.747.9c-2.031,1.05-1.274.532-.8,2.437C316.152,503.794,317.2,505.881,316,508.906Z" transform="translate(-219.189 -429.658)" fill="#be6f72"/>
      <path id="Path_53" data-name="Path 53" d="M356.4,519.279a37.147,37.147,0,0,1-8.976-.994,12.6,12.6,0,0,1-7.366-4.915c-1.036-1.568-1.709-3.543-3.361-4.425-2.7-1.4-5.784.966-7.94,3.137a28.849,28.849,0,0,1-6.75,5.433c-3,1.582-6.5,2.143-9.327,4.005a23.442,23.442,0,0,0-5.6,6.05L287.236,554.6c-7.968,10.867-14.9,22.532-22,34-6.148,9.929-9.369,21.356-14,32.069a3.585,3.585,0,0,0-.434,2.157c.168.728,1.05,1.316,1.666.9-2.087,2.073-.252,5.6-.742,8.514a10.447,10.447,0,0,1-3.333,5.223,26.327,26.327,0,0,1,9.242.434,28.328,28.328,0,0,1,8.738,4.2c1.694-.266,1.54-3.277,2.8-4.4.756-.658,1.877-.574,2.871-.77,3.739-.728,5.223-5.223,8.094-7.758,2.395-2.115,5.784-2.8,8.318-4.789,4.117-3.235,5-8.99,7.156-13.766,1.835-4.047,4.719-7.576,6.33-11.721,1.05-2.689,1.554-5.6,3.053-8.08,2.395-4.005,6.9-6.134,11.2-8.052,2.717-1.218,5.6-2.479,8.528-2.283-.154,6.512-.98,12.925.434,19.283.49,2.241,1.176,4.425,1.765,6.652,2.675,10.027,3.3,20.474,3.431,30.808a93.748,93.748,0,0,1,19.605-2.353c5.2-.154,10.377.518,15.572.42,6.162-.112,12.253-1.3,18.415-1.722s12.6,0,18.051,2.8a171.488,171.488,0,0,1,.742-26.607l1.484-13.92a85.524,85.524,0,0,1,1.863-12.015c.812-3.193,1.989-6.273,2.885-9.452,3.151-11.2,2.577-23.162,1.975-34.827-.308-5.994-2.619-11.889-5.335-17.225a46.634,46.634,0,0,0-3.361-5.714,33.091,33.091,0,0,0-28.932-13.584,5.852,5.852,0,0,0-2.073.448,6.9,6.9,0,0,0-2.647,3.151,34.31,34.31,0,0,1-12.2,12.659Z" transform="translate(-242.521 -426.391)" fill="#0d0d0d"/>
      <path id="Path_54" data-name="Path 54" d="M307.723,501.036c.63-1.4,2.325-1.918,3.361-3.039,1.989-2.129,1.092-5.532,1.4-8.4.5-4.2,3.991-7.716,7.982-9.214a25.794,25.794,0,0,1,12.6-.8,12.2,12.2,0,0,1,5.686,1.891c.728.532,1.4,1.218,2.087,1.708a5.6,5.6,0,0,0,7.618-1.779c-4.957-5.966-10.447-12.267-17.981-14.1a36.871,36.871,0,0,0-7.856-.742c-3.487-.07-7.086-.126-10.307,1.2-4.383,1.806-7.464,5.966-9.046,10.447a50.787,50.787,0,0,0-2.2,14,52.75,52.75,0,0,0,0,9.523,26.327,26.327,0,0,0,4.677,12,3.627,3.627,0,0,0,1.4,1.3C313.535,517.84,307.205,502.2,307.723,501.036Z" transform="translate(-221.515 -440.973)" fill="#3f3d56"/>
      <path id="Path_55" data-name="Path 55" d="M349.066,482.057c-.77-6.6-5.475-12.043-10.475-16.426a38.622,38.622,0,0,0-14.074-8.472c-5.279-1.554-11.357-1.218-15.88,1.933-3.641,2.535-5.952,6.568-7.73,10.629a33.455,33.455,0,0,0-3.375,15.4c.35,5.294,2.927,10.657,7.52,13.332,1.652-2.437,4.523-3.7,7.282-4.691a356.5,356.5,0,0,1,36.732-11.707Z" transform="translate(-222.849 -445.087)" fill="#ff3506"/>
      <path id="Path_56" data-name="Path 56" d="M304.435,472.72c.448,0,.742.462.966.84a35.5,35.5,0,0,1,2.927,5.6c-1.638.35-4.453.742-5.266-.7C302.629,477.734,303.147,472.65,304.435,472.72Z" transform="translate(-220.692 -438.495)" opacity="0.1"/>
      <path id="Path_57" data-name="Path 57" d="M327,472.437c-.336.322-.728-.336-.728-.812v-5.433a.8.8,0,0,1,.1-.434.659.659,0,0,1,.462-.224c1.134-.126,2.073.84,2.8,1.764a29.568,29.568,0,0,1,2.871,4.775l-5.924-.182" transform="translate(-211.34 -441.377)" opacity="0.1"/>
      <path id="Path_58" data-name="Path 58" d="M392.406,545a36.627,36.627,0,0,1,4.117-3.375c3.879-2.591,8.57-3.613,12.925-5.265s8.78-4.327,10.475-8.668a20.585,20.585,0,0,0,.812-8.4,8.4,8.4,0,0,0-.616-3.459,6.874,6.874,0,0,0-2.213-2.409c-5.91-4.369-13.836-4.719-21.174-4.271a132.716,132.716,0,0,0-46.787,11.679,4.063,4.063,0,0,0-1.96,1.4,4,4,0,0,0-.378,1.947,32.21,32.21,0,0,0,1.582,12.2c1.933,4.985,5.91,9,7.576,14.088.756,2.283,1.008,4.705,1.666,7a9.8,9.8,0,0,0,3.935,5.853c5.531,3.3,10.755-1.134,14.592-4.579Z" transform="translate(-202.822 -423.967)" fill="#0d0d0d"/>
      <path id="Path_59" data-name="Path 59" d="M342.2,567.673l-7.1-15.488a54.2,54.2,0,0,1-2.689-6.624c-.812-2.7-1.2-5.5-1.961-8.22-2.493-9.047-8.78-16.581-11.847-25.445a4.831,4.831,0,0,0-1.148-2.143,3.739,3.739,0,0,0-3.123-.56c-4.285.742-7.632,4.005-11.553,5.853-1.82.84-3.781,1.4-5.6,2.367a7,7,0,0,0-3.753,4.467c-.434,2.143.63,4.2,1.526,6.288,3.809,8.6,4.677,18.205,4.845,27.616.126,6.33-.2,13.121-3.935,18.2-7.184,9.8-2.591,24.2.1,36.06.322,1.4.7,2.913.924,4.4a40.413,40.413,0,0,1,.322,5.6c0,6.288-.35,12.771-2.983,18.471a20.668,20.668,0,0,0,8.4,2.381q12.2,1.554,24.493,2.185a26.689,26.689,0,0,0,7.688-.392,14,14,0,0,0,10.349-13.724c.448,3.879,1.274,8.094,4.089,10.783s6.918,3.095,10.741,3.3a199.682,199.682,0,0,0,32.349-.91,5.6,5.6,0,0,0,1.988-.462c2.073-1.036,2.185-3.893,2.017-6.19-.308-4.3-.63-8.6-1.148-12.869a52.66,52.66,0,0,1-.672-8.234,47.377,47.377,0,0,1,1.4-8.4c1.876-8.738,3.361-17.659,2.731-26.607a44.913,44.913,0,0,1-.266-6.568c.364-4.943,2.969-9.649,2.479-14.564-1.4-14.452-2.535-29.282-6.568-43.23-.728-2.493-1.652-5.167-3.823-6.6-2.8-1.877-6.736-.9-9.943-2.087a24.867,24.867,0,0,1-4.271-2.535,19.606,19.606,0,0,0-9.649-2.969c-2.577-.1-5.448.476-7,2.549a10.166,10.166,0,0,0-1.4,3.823c-2.031,8.542-4.411,16.987-6.792,25.431l-2.283,8.094-6.12,21.734C342.408,564.774,342.814,565.489,342.2,567.673Z" transform="translate(-225.055 -427.243)" fill="#ff3506"/>
      <path id="Path_60" data-name="Path 60" d="M349.973,400.25,485.432,542.6V554.67h-60.4L323.24,421.816" transform="translate(-197.023 -344.613)" fill="#f1c0c0"/>
      <path id="Path_61" data-name="Path 61" d="M349.973,400.25,485.432,542.6V554.67h-60.4L323.24,421.816" transform="translate(-197.023 -344.613)" fill="#f95606" opacity="0.5"/>
      <path id="Path_62" data-name="Path 62" d="M325.4,414.31l.434.154L425.9,536.969h59.53V549.04h-60.4L323.24,416.186Z" transform="translate(-197.023 -338.983)" fill="#ce301b" opacity="0.8"/>
      <path id="Path_63" data-name="Path 63" d="M350.458,505.883c-4.9,2.143-10.349,4.887-11.819,10.041a5.028,5.028,0,0,0,4.957,6.736,16.809,16.809,0,0,0,6.736-1.232l28.918-9.551c.784-.252,1.68-.63,1.877-1.4a2.408,2.408,0,0,0-.28-1.4c-.9-2.185-1.779-6.652-3.655-8.178-1.54-1.232-4.593-.8-6.456-.77C363.566,500.184,356.83,503.082,350.458,505.883Z" transform="translate(-206.498 -427.56)" fill="#ff3506"/>
      <path id="Path_64" data-name="Path 64" d="M367.176,513.846a46.509,46.509,0,0,1,14.354,2.227,25.572,25.572,0,0,1,11.889,8.122,8.906,8.906,0,0,1,1.877,3.669c.28,1.4,4.845,2.241,3.837,3.193,3.067-.49,2.339.952,5.447.924s6.47-.826,8.332-3.3a10.826,10.826,0,0,0,1.638-6.848,11.665,11.665,0,0,0-.924-4.845c-1.4-2.941-4.621-4.523-7.59-5.882L381.025,499.66a16.611,16.611,0,0,0-4.621-1.638,17.285,17.285,0,0,0-4.075.1L361,499.422a16.987,16.987,0,0,1,7.744,14.942" transform="translate(-197.435 -428.395)" fill="#0d0d0d"/>
    </g>
    <path id="Path_2" data-name="Path 2" d="M765.568,781.246c0,4.575-15.762,8.863-43.268,12.547H202.038a131.084,131.084,0,0,1-65.93-17.625l-.308-.174c7.9-2.88,22.173-5.567,41.593-7.992h0l.871-.107c8.709-1.065,18.442-2.077,29.08-3.035a6.623,6.623,0,0,0,.811-.074h0q12.661-1.125,26.936-2.11c.3,0,.6-.054.9-.067q5.506-.4,11.241-.75h0l1.474-.094c27.834-1.728,59.473-3.108,93.784-4.019h.04q7.208-.2,14.57-.355,8.186-.194,16.573-.342c4.267-.094,8.588-.161,12.922-.228h.1c19.554-.295,39.758-.442,60.417-.442,51.086,0,99.371.931,142.157,2.606h.121c6.578.255,13.036.536,19.333.824l5.359.255q10.658.509,20.766,1.092h0C714.093,765.665,765.568,772.986,765.568,781.246Z" transform="translate(506.803 -42.207)" fill="#c9c9c9" opacity="0.51"/>
    <path id="Path_14" data-name="Path 14" d="M126.91,672.248l321.445,24.6.275.02,311.089-19.132.234-.013V664.585l-342.781-6.29-285.982-.275H129.1l-.228,1.474Z" transform="translate(517.167 49.052)" fill="#f1c0c0"/>
    <path id="Path_15" data-name="Path 15" d="M126.91,672.248l321.445,24.6.275.02,311.089-19.132.234-.255V664.86h-.275l-311.323,10.4L131.191,658.02h-.047l-.563.368-1.708,1.105Z" transform="translate(517.167 49.052)" fill="#ff3506" opacity="0.43"/>
    <path id="Path_16" data-name="Path 16" d="M126.91,672.43l321.445,24.6v-21.59L130.581,658.57l-1.708,1.105Z" transform="translate(517.167 48.87)" opacity="0.1"/>
    <g id="Group_6" data-name="Group 6" transform="translate(974.725 383.596)">
      <path id="Path_24" data-name="Path 24" d="M508.146,493.942a23.4,23.4,0,0,1,3.081,2,20.393,20.393,0,0,1,3.081,3.379c4.406,5.7,8.473,12.324,8.041,19.513a7.938,7.938,0,0,1-2.29,5.648c-1.818,1.551-4.426,1.623-6.809,1.623-2.588,0-5.309,0-7.548-1.335s-4.108-3.933-6.758-3.872a3.457,3.457,0,0,1-1.13,0c-.914-.3-1.1-1.5-1.694-2.259-1.027-1.366-3.194-1.027-4.806-.431s-3.4,1.489-4.991.8a5.185,5.185,0,0,1-2.167-2.167c-3.81-6.162-4.621-13.567-5.34-20.725-.442-4.354-3.81-19.2,5.484-15.826,4.108,1.479,7.949,4.437,11.687,6.6Z" transform="translate(-390.082 -428.511)" fill="#0d0d0d"/>
      <path id="Path_25" data-name="Path 25" d="M498.46,495.147a4.581,4.581,0,0,0,5.638-.226,8.494,8.494,0,0,0,2.742-5.32c1.027-.318,1.551,1.027,2.208,1.849,1.15,1.4,3.492,1.376,4.539,2.865.729,1.027.565,2.455,1.078,3.615.668,1.5,2.321,2.28,3.451,3.492a11.891,11.891,0,0,1,2.259,4.509l1.684,5.053a24.969,24.969,0,0,1,1.54,6.542,8.472,8.472,0,0,1-1.951,6.255c-2.26,2.434-5.967,2.691-9.243,2.619a11.9,11.9,0,0,1-3.245-.38c-2.906-.9-4.765-3.831-5.535-6.778s-.688-6.039-1.14-9.058a35.5,35.5,0,0,0-2.567-8.606c-.9-2.136-3.389-5.32-3.348-7.59C497.309,493.986,497.843,494.664,498.46,495.147Z" transform="translate(-389.577 -428.248)" fill="#0d0d0d"/>
      <path id="Path_26" data-name="Path 26" d="M502.368,485.218a16.957,16.957,0,0,1-.832-4.509c0-3.081,1.407-5.977,2.824-8.73l-11.739,1.592c-1.417.2-3,.483-3.8,1.664a4.108,4.108,0,0,0,0,3.79,19.369,19.369,0,0,1,1.4,3.666,18.306,18.306,0,0,0,.38,3.3,6.982,6.982,0,0,0,1.51,2.126c3.358,3.718,5.875,8.1,8.38,12.447-.072-.123,7.076-5.659,6.788-7.466-.164-1.027-2.229-2.259-2.886-3.245A16.524,16.524,0,0,1,502.368,485.218Z" transform="translate(-389.799 -428.723)" fill="#be6f72"/>
      <path id="Path_27" data-name="Path 27" d="M594.516,358.04v10.116L421.291,401.944l-8.986,5.443H381.3v-5.7l170.195-41.121Z" transform="translate(-381.3 -341.669)" fill="#ff3506"/>
      <path id="Path_28" data-name="Path 28" d="M594.516,367.89,421.291,401.678l-8.986,5.443H381.3l171.458-36.695Z" transform="translate(-381.3 -341.404)" opacity="0.1"/>
      <path id="Path_29" data-name="Path 29" d="M465.338,725.548a13.423,13.423,0,0,0-16.329-3.471,4.3,4.3,0,0,0-1.5,1.171c-1.027,1.438-.37,3.42-.277,5.2.236,4.334-3.214,7.856-6.316,10.886-1.664,1.623-3.358,3.358-4.108,5.566s-.2,5.012,1.818,6.162a7.571,7.571,0,0,0,2.814.781,30.368,30.368,0,0,0,9.962.277c3.276-.626,6.491-2.485,7.908-5.5a5.8,5.8,0,0,1,1.325-2.188c1.807-1.427,4.58.247,6.634-.77,1.695-.842,1.766-2.167,1.787-3.913C469.118,734.914,468.4,729.451,465.338,725.548Z" transform="translate(-391.199 -422.008)" fill="#ff3506"/>
      <path id="Path_30" data-name="Path 30" d="M489.164,725.563c1.263,3.327,1.438,6.953,1.6,10.506.092,2.054.154,4.252-.955,5.987s-3.276,2.65-5.351,3.081c-4.283.883-9.243.051-12.006-3.348-2.116-2.6-2.557-6.162-2.167-9.531.329-2.763,1.027-6-.955-7.959-.514-.524-1.181-.893-1.654-1.458-1.027-1.253-.863-3.143-.308-4.683a20.346,20.346,0,0,0,1.612-4.632c.082-.76,13.906.534,15.179,1.161,1.736.852,1.469,2.28,1.992,4.005C486.885,721.1,488.281,723.262,489.164,725.563Z" transform="translate(-390.377 -422.207)" fill="#ff3506"/>
      <path id="Path_31" data-name="Path 31" d="M492.8,581.663c2.711,1.756,3.759,5.207,4.18,8.411,1.161,8.781-.873,17.654-1.027,26.517-.144,12.417,3.451,25.059.38,37.085-1.838,7.189-.277,15.405-2,22.666-.513,2.157-1.458,4.19-1.951,6.347-1.027,4.673.051,9.561,1.5,14.132a14.6,14.6,0,0,1,.873,3.831,13.783,13.783,0,0,1-1.5,5.792l-6.162,14.573c-.688,1.633-3.4,1.9-5.135,2.116-3.266.39-6.912.668-9.51-1.356s-3.225-5.412-3.625-8.575a131.466,131.466,0,0,1-1.027-18.311,15.086,15.086,0,0,0-.421-4.755c-.565-1.756-1.807-3.276-2.146-5.135-.431-2.4.791-4.765,1.243-7.189a21.658,21.658,0,0,0-.1-6.665c-.4-3.286-.863-6.573-1.386-9.839-.739-4.57.318-9.079,1.027-13.659.668-4.3-.185-8.688-1.027-12.961a35.728,35.728,0,0,1-1.284,10.27c-.544,1.633-1.325,3.194-1.8,4.858-2.105,7.466,2.383,15.3,1.746,23.036-.3,3.615-1.715,7.189-1.315,10.753.277,2.608,1.489,5,2.321,7.487s1.263,5.33,0,7.651c-3.338,6.306-.842,14.881,2.146,21.351a28.826,28.826,0,0,1,1.582,3.553c.883,2.917.144,6.049.38,9.089a5.731,5.731,0,0,1-4.817-1.448c-.452-.473-.822-1.027-1.263-1.52a12.541,12.541,0,0,0-4.293-2.681,5.639,5.639,0,0,0-3.081-.708,6.162,6.162,0,0,0-2.927,1.818,28.7,28.7,0,0,1-3.225,2.455,3.82,3.82,0,0,1-1.643.729,1.448,1.448,0,0,1-1.51-.77,1.827,1.827,0,0,1-.113-.534,81.277,81.277,0,0,1-.606-9.346c0-5.371-6.429-9.068-7.24-14.378-.647-4.283.555-8.647.154-12.961-.2-2.218-.811-4.4-.77-6.614,0-1.438.329-2.845.442-4.272a31.943,31.943,0,0,0-.072-4.755l-.318-4.96c-.308-4.9-.647-9.9-2.578-14.378a48.854,48.854,0,0,1-4.005-16.514c-.205-3.595-.072-7.189-.483-10.794-.37-3.256-1.191-6.491-.955-9.757.2-2.526,1.027-4.971,1.222-7.5.4-4.858-1.448-9.582-2.9-14.234s-2.516-9.808-.616-14.3a4.692,4.692,0,0,1,1.314-1.91,5.73,5.73,0,0,1,2.424-.9,188.057,188.057,0,0,1,53.63-3.42,17.81,17.81,0,0,1,8.267,2.578Z" transform="translate(-391.479 -425.847)" fill="#0d0d0d"/>
      <ellipse id="Ellipse_13" data-name="Ellipse 13" cx="16.453" cy="16.453" rx="16.453" ry="16.453" transform="translate(26.569 13.834)" fill="#be6f72"/>
      <path id="Path_32" data-name="Path 32" d="M431.347,479.784a5.874,5.874,0,0,1,0,2.865,6.49,6.49,0,0,1-1.078,1.808A46.429,46.429,0,0,1,425,490.187a9.541,9.541,0,0,0,4.919,4.858,28.557,28.557,0,0,0,6.789,1.941,7.115,7.115,0,0,0,6.655-1.15l9.14-5.474a18.262,18.262,0,0,0,3.8-2.742,9.356,9.356,0,0,0,2.65-6.429,1.767,1.767,0,0,0-.329-1.212,2.157,2.157,0,0,0-1.253-.524c-3.215-.709-5.751-3.317-7.189-6.275a33.234,33.234,0,0,1-2.5-9.52l-9.746,5.135c-1.448.77-2.886,1.541-4.385,2.208-.955.431-2.886.791-3.564,1.664C428.7,474.279,431.008,477.843,431.347,479.784Z" transform="translate(-391.509 -428.947)" fill="#be6f72"/>
      <path id="Path_33" data-name="Path 33" d="M425.15,486.855A10.836,10.836,0,0,0,422,491.117c-.637,2.054,0,4.221.575,6.254a186.593,186.593,0,0,1,6.162,26.486c.863,6.162,1.181,12.417,1.6,18.65.863,12.714,2.116,32.987,3.79,45.619,6.162.277,12.17-1.52,18.281-2.177,11.42-1.212,23.179,1.561,34.363-1.027-2.711-10.712-5.423-29-8.134-39.7a75.759,75.759,0,0,1-2.485-12.889c-.236-3.132-.092-6.275-.051-9.428.092-6.162-.246-12.324-.585-18.486-.39-7.189-.781-14.378-2.485-21.413a3.985,3.985,0,0,0-1.191-2.352c-1.027-.75-2.362-.483-3.584-.318a15.59,15.59,0,0,1-10.66-2.526c-1.356-.924-3.173-2.054-4.437-1.027a4.417,4.417,0,0,0-1.027,2.187A10.937,10.937,0,0,1,445.7,485.3a32.171,32.171,0,0,1-9.1,1.869,4.467,4.467,0,0,1-2.824-.318c-1.458-.894-1.561-4.108-3.4-4.324C428.765,482.347,426.238,485.818,425.15,486.855Z" transform="translate(-391.598 -428.604)" fill="#0d0d0d"/>
      <path id="Path_34" data-name="Path 34" d="M449.928,511.917c-3.79-3.625-5.453-8.884-8.216-13.351a29.721,29.721,0,0,0-7.1-7.805,21.168,21.168,0,0,1-3.862-3.276c-.976-1.2-1.715-2.8-3.194-3.266a3.861,3.861,0,0,0-3.461.955,34.054,34.054,0,0,0-2.567,2.732c-4.354,4.509-12.006,5.135-15.456,10.352a8.483,8.483,0,0,0-1.838,3.851,29.845,29.845,0,0,0,5.484,21.464,7.291,7.291,0,0,0,3.8,3.081,11.892,11.892,0,0,0,.739,5.648,151.04,151.04,0,0,0,6.994,19.051,46.088,46.088,0,0,0-1.376,7.384c-.719,6.275-.051,12.642-.729,18.928-.555,5.135-2.054,10.136-2.105,15.282,0,.822.072,1.8.781,2.218a2.361,2.361,0,0,0,1.222.257l12.632.38c7.333.216,14.738.431,21.957-.924a9.136,9.136,0,0,0,2.763-.873c2.444-1.366,3.256-4.447,3.646-7.189a62.649,62.649,0,0,0,.606-10.742c1.53,4.837,3.348,9.839,7.97,11.934,2.444,1.109,5.238,1.027,7.918.955a149.071,149.071,0,0,0,17.243-1.777,2.27,2.27,0,0,0,2.516-2.64l.062-5.607c.123-11.39-2.7-22.276-3.8-33.614-.349-3.574-.318-7.189-1.191-10.691-.359-1.469-.883-2.906-1.2-4.385a31.351,31.351,0,0,1-.513-4.385l-.8-11.3c-.38-5.227-.924-10.27-1.325-15.487a74.973,74.973,0,0,0-2.2-15.056c-.893-3.081-2.752-6.573-5.967-6.953-1.715-.2-3.379.555-5.012,1.078a20.253,20.253,0,0,1-12.324-.051,17.356,17.356,0,0,0-3.841-1.027,3.769,3.769,0,0,0-3.512,1.458,5.268,5.268,0,0,0-.544,2.588C453.646,491.377,452.752,501.945,449.928,511.917Z" transform="translate(-392.077 -428.586)" fill="#ff3506"/>
      <path id="Path_35" data-name="Path 35" d="M433.379,511.7c-4.734-4.991-9.592-10.075-15.693-13.248-2.4-1.253-5.135-2.2-7.795-1.725s-5.135,2.783-5.012,5.484c.082,1.674,1.1,3.153,1.417,4.8.37,1.849-.164,3.82.411,5.607a9.489,9.489,0,0,0,2.054,3.153l7.271,8.617c3.081,3.595,6.162,7.24,10.126,9.726s9.1,3.646,13.454,1.879a16.535,16.535,0,0,0,7.374-6.768c1.808-2.876,3.081-6.018,4.776-8.986a44.62,44.62,0,0,1,10.27-12.458c-2.136-.555-4.817-1.335-6.162-3.081a10.185,10.185,0,0,1-.976-1.766l-1.664-3.595a4.108,4.108,0,0,0-3.081,1.161,25.839,25.839,0,0,1-2.29,2.331c-1.448,1.089-3.41,1.386-4.724,2.629a12.51,12.51,0,0,0-1.376,1.725,11.523,11.523,0,0,1-8.38,4.519Z" transform="translate(-392.053 -428.058)" fill="#0d0d0d"/>
      <path id="Path_36" data-name="Path 36" d="M461.187,491.158c3.564-6.5,3.4-14.3,4.416-21.639a9.88,9.88,0,0,1,1.962-5.371c2.054-2.321,5.679-2.352,8.781-2.054.914.1,2.054.534,2,1.448a1.849,1.849,0,0,1-.462.873,24.432,24.432,0,0,0-5.073,13.474c1.612,1.119,4.108-1.181,5.659,0,1.027.863.555,2.567-.062,3.8q-2.146,4.283-4.426,8.5a27.307,27.307,0,0,1-4.693,6.768c-1.3,1.253-2.835,2.239-4.159,3.471-3.081,2.886-4.94,6.963-8.124,9.777a1.664,1.664,0,0,1-1.027.524,1.726,1.726,0,0,1-1.078-.483,15.57,15.57,0,0,1-3.882-4.693c-1.212-2.239-1.027-2.9.883-4.478C455.477,498.254,458.959,495.224,461.187,491.158Z" transform="translate(-390.827 -428.993)" fill="#be6f72"/>
      <path id="Path_39" data-name="Path 39" d="M590.041,358.04v10.116l-41.758,2.537-1.263-10.126Z" transform="translate(-376.825 -341.669)" opacity="0.2"/>
      <path id="Path_40" data-name="Path 40" d="M420.188,458.1c2.71-1.752,1.142-5.427,2.977-7.78,1.067-1.287,2.87-1.964,4.642-2.54a25.506,25.506,0,0,1,6.776-1.49,9.112,9.112,0,0,1,6.4,1.871c.694.627,1.163,1.388,1.814,2.04a8.036,8.036,0,0,0,6.723,1.846c1.419-.254,2.892-1.109,2.8-2.261a3.1,3.1,0,0,0-1.281-1.812l-3.052-2.684c-3.468-3.048-7.32-6.282-12.41-7.044-3.543-.533-7.171.22-10.585,1.126-1.377.364-2.924.906-3.308,2.015-.256.762.128,1.592-.1,2.362-.438,1.532-2.913,2.049-4.066,3.336s-.8,2.811-1.131,4.233-1.291,2.811-1.409,4.284c-.075.889.491,2.54,1.75,2.862S419.409,457.043,420.188,458.1Z" transform="translate(-392.848 -425.445)" fill="#3f3d56"/>
      <path id="Path_41" data-name="Path 41" d="M449.942,451.026a30.811,30.811,0,0,0-5.464-12.488,21.886,21.886,0,0,0-9.726-7.723,13.926,13.926,0,0,0-12.108.955,17.583,17.583,0,0,0-6.049,7.631c-2.66,5.731-3.646,12.735-.555,18.24,1.232-1.5,3.348-.822,5.217-1.366,2.342-.668,4.324-2.229,6.552-3.2C434.537,450.1,442.753,452.505,449.942,451.026Z" transform="translate(-391.803 -429.86)" fill="#ff3506"/>
    </g>
  </g>
</svg>
