<svg xmlns="http://www.w3.org/2000/svg" xmlns:xlink="http://www.w3.org/1999/xlink" width="170" height="170" viewBox="0 0 170 170">
  <defs>
    <style>
      .cls-1 {
        clip-path: url(#clip-paper-question-m-no-colour);
      }

      .cls-2, .cls-3 {
        fill: none;
      }

      .cls-3 {
        stroke: #0d0d0d;
        stroke-linejoin: round;
        stroke-width: 2px;
      }
    </style>
    <clipPath id="clip-paper-question-m-no-colour">
      <rect width="170" height="170"/>
    </clipPath>
  </defs>
  <g id="paper-question-m-no-colour" class="cls-1">
    <g id="Group_44" data-name="Group 44" transform="translate(-15843 -10270)">
      <rect id="Rectangle_201" data-name="Rectangle 201" class="cls-2" width="160" height="160" transform="translate(15848 10275)"/>
      <g id="Group_41" data-name="Group 41" transform="translate(9075 9219)">
        <path id="Path_243" data-name="Path 243" class="cls-2" d="M108.961,116C124.5,145.823-25.9,167.218,9.527,135.07S-42.032,58.9,28.608,35.636C60.736,25.048,86.29-25.727,128.031,16.562S96.091,91.29,108.961,116Z" transform="translate(6773.986 1061.003)"/>
        <path id="Path_248" data-name="Path 248" class="cls-3" d="M230.414,143.18l-10.969-4.253a1.228,1.228,0,0,0-1.437.424,92.379,92.379,0,0,1-8.479,10.016" transform="translate(6634.965 968.872)"/>
        <path id="Path_244" data-name="Path 244" class="cls-3" d="M178.819,179.064l.084.057a5.928,5.928,0,0,1,2.019,4.852,7.805,7.805,0,0,1-1.221,4.546,24.422,24.422,0,0,1-3.785,4.085,36.738,36.738,0,0,0-3.119,3.089,11.6,11.6,0,0,0-1.968,3.365,11.776,11.776,0,0,0-.764,3.445,1.225,1.225,0,0,0,1.228,1.305h2.5a1.221,1.221,0,0,0,1.221-1.087,8.671,8.671,0,0,1,.73-2.782,11.1,11.1,0,0,1,1.864-2.883,36.979,36.979,0,0,1,3.055-2.883q2.019-1.76,3.324-3.119a11.255,11.255,0,0,0,2.137-3.328,11.578,11.578,0,0,0,.848-4.613,10.948,10.948,0,0,0-1.524-5.922" transform="translate(6661.152 943.428)"/>
        <path id="Path_245" data-name="Path 245" class="cls-3" d="M241.215,221.374a3.976,3.976,0,0,0,2.187,3.657,1.346,1.346,0,0,0,.336.131,3.715,3.715,0,0,0,3.815-.972,3.953,3.953,0,0,0,1.056-2.816,3.839,3.839,0,0,0-1.053-2.779,3.493,3.493,0,0,0-2.611-1.087A3.6,3.6,0,0,0,242.3,218.6,3.765,3.765,0,0,0,241.215,221.374Z" transform="translate(6613.941 916.676)"/>
        <path id="Path_246" data-name="Path 246" class="cls-3" d="M94.123,165.826c-14.8,12.91-31.933,17.849-50.469,17.889a1.235,1.235,0,0,0-.851,2.13l51.815,48.786a1.248,1.248,0,0,0,1.107.31c30.291-6.544,53.426-25.833,67.467-61.3a1.231,1.231,0,0,0-.7-1.6l-38.242-14.8" transform="translate(6745.85 956.666)"/>
        <path id="Path_247" data-name="Path 247" class="cls-3" d="M166.969,280.915a3.768,3.768,0,0,0-1.083,2.783,3.975,3.975,0,0,0,2.187,3.654,1.345,1.345,0,0,0,.336.131,3.715,3.715,0,0,0,3.815-.972,3.947,3.947,0,0,0,1.053-2.813,3.839,3.839,0,0,0-1.053-2.783,3.492,3.492,0,0,0-2.611-1.087A3.6,3.6,0,0,0,166.969,280.915Z" transform="translate(6663.926 875.324)"/>
        <path id="Path_249" data-name="Path 249" class="cls-3" d="M249.634,159.815c-.589.575-1.1,1.107-1.521,1.595a11.941,11.941,0,0,0-2.719,6.8,1.225,1.225,0,0,0,1.228,1.305h2.5a1.221,1.221,0,0,0,1.221-1.087,8.67,8.67,0,0,1,.73-2.783,11.1,11.1,0,0,1,1.864-2.883A36.968,36.968,0,0,1,256,159.879c1.164-1.009,2.133-1.911,2.931-2.719" transform="translate(6611.168 956.719)"/>
        <path id="Path_250" data-name="Path 250" class="cls-3" d="M258,156.212q.717-.7,1.6-1.494a30.2,30.2,0,0,0,2.964-2.988" transform="translate(6602.801 960.322)"/>
        <path id="Path_251" data-name="Path 251" class="cls-3" d="M239.732,118.778c.131-.135.272-.273.394-.4a11.19,11.19,0,0,0,2.137-3.324,11.577,11.577,0,0,0,.848-4.613,9.952,9.952,0,0,0-3.6-8.243q-3.6-2.883-9.565-2.883-6.056,0-9.7,3.365a12.167,12.167,0,0,0-3.775,8,1.231,1.231,0,0,0,1.211,1.346l2.645.037a1.221,1.221,0,0,0,1.231-1.05,6.769,6.769,0,0,1,2.15-4.33,8.266,8.266,0,0,1,5.7-1.867,8.654,8.654,0,0,1,5.632,1.662,5.958,5.958,0,0,1,2.019,4.852,7.8,7.8,0,0,1-1.221,4.546,13.108,13.108,0,0,1-.834,1.083" transform="translate(6630.363 995.104)"/>
        <path id="Path_252" data-name="Path 252" class="cls-3" d="M319.95,41.577q0-5.36-3.593-8.243t-9.569-2.883a13.779,13.779,0,0,0-9.7,3.365,12.159,12.159,0,0,0-3.779,8,1.231,1.231,0,0,0,1.215,1.346l2.641.034a1.225,1.225,0,0,0,1.235-1.046,6.777,6.777,0,0,1,2.147-4.33,8.282,8.282,0,0,1,5.7-1.867,8.671,8.671,0,0,1,5.632,1.662,6,6,0,0,1,2.036,4.852,7.8,7.8,0,0,1-1.221,4.546,24.6,24.6,0,0,1-3.8,4.071,36.739,36.739,0,0,0-3.119,3.089,11.594,11.594,0,0,0-1.968,3.365,11.778,11.778,0,0,0-.764,3.445,1.225,1.225,0,0,0,1.228,1.305h2.5a1.221,1.221,0,0,0,1.235-1.1,8.669,8.669,0,0,1,.73-2.783A10.985,10.985,0,0,1,310.6,55.52a36.3,36.3,0,0,1,3.052-2.883q2.019-1.76,3.324-3.122a11.189,11.189,0,0,0,2.13-3.324A11.577,11.577,0,0,0,319.95,41.577Z" transform="translate(6579.375 1040.796)"/>
        <path id="Path_253" data-name="Path 253" class="cls-3" d="M318.055,152.484a3.973,3.973,0,0,0,2.19,3.657,1.345,1.345,0,0,0,.336.131,3.711,3.711,0,0,0,3.812-.972,3.953,3.953,0,0,0,1.053-2.816,3.832,3.832,0,0,0-1.053-2.779,3.489,3.489,0,0,0-2.611-1.087,3.6,3.6,0,0,0-2.648,1.087A3.762,3.762,0,0,0,318.055,152.484Z" transform="translate(6562.955 962.387)"/>
        <path id="Path_254" data-name="Path 254" class="cls-3" d="M159.624,168.746a8.741,8.741,0,0,0-5.548-1.6,8.274,8.274,0,0,0-5.7,1.867,6.769,6.769,0,0,0-2.15,4.33,1.221,1.221,0,0,1-1.231,1.05l-2.645-.037a1.232,1.232,0,0,1-1.211-1.346,12.136,12.136,0,0,1,3.775-8,13.784,13.784,0,0,1,9.7-3.365q5.932,0,9.515,2.846" transform="translate(6680.348 953.746)"/>
        <path id="Path_255" data-name="Path 255" class="cls-3" d="M211.613,172.479a9.215,9.215,0,0,0-2.073-2.322l-.05-.037" transform="translate(6634.99 948.119)"/>
      </g>
    </g>
  </g>
</svg>
