<svg id="Group_61" data-name="Group 61" xmlns="http://www.w3.org/2000/svg" xmlns:xlink="http://www.w3.org/1999/xlink" width="1022.7" height="785.81" viewBox="0 0 1022.7 785.81">
  <defs>
    <linearGradient id="linear-gradient" x1="0.541" y1="0.999" x2="0.541" y2="-0.006" gradientUnits="objectBoundingBox">
      <stop offset="0" stop-color="gray" stop-opacity="0.251"/>
      <stop offset="0.54" stop-color="gray" stop-opacity="0.122"/>
      <stop offset="1" stop-color="gray" stop-opacity="0.102"/>
    </linearGradient>
  </defs>
  <ellipse id="Ellipse_96" data-name="Ellipse 96" cx="425" cy="33" rx="425" ry="33" transform="translate(129.07 627.88)" fill="#6c63ff" opacity="0.1"/>
  <g id="Group_56" data-name="Group 56" transform="translate(0 92.03)" opacity="0.1">
    <path id="Path_383" data-name="Path 383" d="M828.513,529.93c2.54-7.71,12.84-11.26,23-7.92a24.763,24.763,0,0,1,4.23,1.83c.65-.18,1.32-.34,2-.46a22.422,22.422,0,0,1-.63-6.79,24.6,24.6,0,0,1-10.9-21.47,24.63,24.63,0,0,1-10.86-21.47,23.76,23.76,0,0,1-8.23-9.32c-4.9-9.7-2.87-20.6,4.54-24.35s17.4,1.08,22.3,10.78a23.69,23.69,0,0,1,2.63,12.15,24.63,24.63,0,0,1,10.86,21.47,24.63,24.63,0,0,1,10.86,21.47,24.64,24.64,0,0,1,10.9,21.48,23.759,23.759,0,0,1,8.23,9.32,25.459,25.459,0,0,1,2.08,5.74,21.179,21.179,0,0,1,4.44-4.73,25.379,25.379,0,0,1,1-4.5c3.34-10.17,12.3-16.37,20-13.83s11.26,12.83,7.92,23a23.069,23.069,0,0,1-7.56,11.08,25.38,25.38,0,0,1-1,4.5c-1.94,5.9-5.77,10.46-10.15,12.75a23.233,23.233,0,0,1,.83,3.9,25.29,25.29,0,0,1,7.54,14.91,25.27,25.27,0,0,1,7.54,14.92,24.633,24.633,0,0,1,5,6.81c4.91,9.7,2.88,20.61-4.53,24.35s-17.4-1.07-22.31-10.78a24.621,24.621,0,0,1-2.5-8.09,25.29,25.29,0,0,1-7.54-14.91,25.27,25.27,0,0,1-7.54-14.92,25.21,25.21,0,0,1-7.45-14.91,25.21,25.21,0,0,1-7.56-14.94,24.111,24.111,0,0,1-3.39-4,23.46,23.46,0,0,1-12.27-.77,24.761,24.761,0,0,1-4.23-1.83,23.2,23.2,0,0,1-13.42-.48C832.213,546.61,825.983,537.65,828.513,529.93Z" transform="translate(-650.862 -149.12)" fill="#3f3d56"/>
    <g id="Group_54" data-name="Group 54" transform="translate(177.095 316.54)" opacity="0.1">
      <path id="Path_384" data-name="Path 384" d="M911.22,499.53a21.5,21.5,0,0,0,3.44,2.75,23,23,0,0,0,1.11,8.43,26.177,26.177,0,0,1-2.1-3.43,24.641,24.641,0,0,1-2.45-7.75Z" transform="translate(-892.735 -465.66)"/>
      <path id="Path_385" data-name="Path 385" d="M922.08,478.06a21.5,21.5,0,0,0,3.44,2.75,23,23,0,0,0,1.11,8.43,25.653,25.653,0,0,1-2.1-3.44,24.854,24.854,0,0,1-2.45-7.74Z" transform="translate(-914.455 -465.66)"/>
      <path id="Path_386" data-name="Path 386" d="M896.04,470.07a21.913,21.913,0,0,0-.17-4.41,24.928,24.928,0,0,1,4.78,6.57,25.643,25.643,0,0,1,1.52,3.73A22.75,22.75,0,0,0,896.04,470.07Z" transform="translate(-863.785 -465.66)"/>
      <path id="Path_387" data-name="Path 387" d="M836.89,600a23.592,23.592,0,0,0-2.95-3.38,22.912,22.912,0,0,0-.87-4,25.084,25.084,0,0,1,2.29,3.71,25.607,25.607,0,0,1,1.53,3.67Z" transform="translate(-735.705 -465.66)"/>
      <path id="Path_388" data-name="Path 388" d="M844.39,585.1a23.592,23.592,0,0,0-2.95-3.38,22.99,22.99,0,0,0-.83-3.9h0a25.676,25.676,0,0,1,2.2,3.59,26.75,26.75,0,0,1,1.58,3.69Z" transform="translate(-750.745 -465.66)"/>
      <path id="Path_389" data-name="Path 389" d="M930.195,521a20.823,20.823,0,0,0,3.43,2.74,22.452,22.452,0,0,0,.63,6.79,18.755,18.755,0,0,0-2,.46,24.767,24.767,0,0,0-4.23-1.83c-10.18-3.34-20.47.21-23,7.92a11.681,11.681,0,0,0-.32,6c-3.35-3.94-4.74-8.74-3.3-13.14,2.54-7.71,12.84-11.26,23-7.92a24.763,24.763,0,0,1,4.23,1.83c.65-.18,1.32-.34,2-.46C930.445,522.59,930.3,521.8,930.195,521Z" transform="translate(-900.84 -465.66)"/>
      <path id="Path_390" data-name="Path 390" d="M825.52,607.49a25.088,25.088,0,0,1,2.29,3.71,26.559,26.559,0,0,1,1.54,3.74,24.484,24.484,0,0,0-3-3.4A22.925,22.925,0,0,0,825.52,607.49Z" transform="translate(-720.615 -465.66)"/>
      <path id="Path_391" data-name="Path 391" d="M885.13,491.54a22,22,0,0,0-.17-4.41,24.93,24.93,0,0,1,4.78,6.57,25.632,25.632,0,0,1,1.52,3.73,22.751,22.751,0,0,0-6.13-5.89Z" transform="translate(-841.965 -465.66)"/>
      <path id="Path_392" data-name="Path 392" d="M877.12,579.1a24.294,24.294,0,0,0,1,4.38,26.681,26.681,0,0,1-2.09-3.44,25.492,25.492,0,0,1-1.63-4A24.231,24.231,0,0,0,877.12,579.1Z" transform="translate(-818.265 -465.66)"/>
      <path id="Path_393" data-name="Path 393" d="M862.05,608.92a24.153,24.153,0,0,0,1,4.38,25.656,25.656,0,0,1-2.1-3.44,26.474,26.474,0,0,1-1.63-4,23.582,23.582,0,0,0,2.73,3.06Z" transform="translate(-788.115 -465.66)"/>
      <path id="Path_394" data-name="Path 394" d="M869.63,594a24.109,24.109,0,0,0,1,4.38,26.672,26.672,0,0,1-2.14-3.38,25.5,25.5,0,0,1-1.63-4,24.23,24.23,0,0,0,2.77,3Z" transform="translate(-803.235 -465.66)"/>
      <path id="Path_395" data-name="Path 395" d="M884.67,564.19a23.994,23.994,0,0,0,1,4.37,25.878,25.878,0,0,1-2.09-3.43,25.481,25.481,0,0,1-1.64-4.07A23.216,23.216,0,0,0,884.67,564.19Z" transform="translate(-833.355 -465.66)"/>
      <path id="Path_396" data-name="Path 396" d="M857.23,526.48c-7.72-2.53-16.68,3.66-20,13.83a25.68,25.68,0,0,0-1,4.51,21.18,21.18,0,0,0-4.44,4.73,25.528,25.528,0,0,0-2.08-5.75c-.35-.68-.73-1.33-1.12-2a21.068,21.068,0,0,1,4-4.18,25.374,25.374,0,0,1,1-4.5c3.34-10.17,12.3-16.37,20-13.83,4.4,1.44,7.44,5.41,8.62,10.43a11.69,11.69,0,0,0-4.98-3.24Z" transform="translate(-756.545 -465.66)"/>
      <path id="Path_397" data-name="Path 397" d="M863.42,534.48a21.847,21.847,0,0,0-.18-4.4,24.732,24.732,0,0,1,4.79,6.57,25.08,25.08,0,0,1,1.52,3.72,23,23,0,0,0-6.13-5.89Z" transform="translate(-798.535 -465.66)"/>
      <path id="Path_398" data-name="Path 398" d="M874.28,513a21.847,21.847,0,0,0-.18-4.4,24.517,24.517,0,0,1,4.79,6.56,25.631,25.631,0,0,1,1.52,3.73,22.75,22.75,0,0,0-6.13-5.89Z" transform="translate(-820.255 -465.66)"/>
      <path id="Path_399" data-name="Path 399" d="M854.51,623.83a24.249,24.249,0,0,0,1,4.39,25.732,25.732,0,0,1-3.73-7.49,23.573,23.573,0,0,0,2.73,3.1Z" transform="translate(-773.035 -465.66)"/>
    </g>
    <path id="Path_400" data-name="Path 400" d="M917.6,430.71a23.68,23.68,0,0,1-8.23-9.32c-4.91-9.7-2.88-20.61,4.53-24.36s17.4,1.08,22.31,10.79a23.68,23.68,0,0,1,2.62,12.18,24.63,24.63,0,0,1,10.86,21.47,23.611,23.611,0,0,1,8.23,9.32,24.688,24.688,0,0,1,1.51,3.69,20.85,20.85,0,0,0-10.77-8,12.24,12.24,0,0,1-15.54,7.84,20.85,20.85,0,0,0,0,13.41,25.48,25.48,0,0,1-2.08-3.4,23.681,23.681,0,0,1-2.62-12.15,24.57,24.57,0,0,1-10.86-21.47Z" transform="translate(-754.769 -149.12)" fill="#3f3d56"/>
    <path id="Path_401" data-name="Path 401" d="M926.6,293.07a71.994,71.994,0,0,1-8.72-4.83l32.33-23.62-38,19.57a72.13,72.13,0,0,1-27-50.31l64.58.66-64.72-10.82A72,72,0,1,1,1027.649,242a72.085,72.085,0,0,1,13.26,8l-33.75,46.93,40.52-41.08a72.08,72.08,0,0,1,20.17,65.61,72,72,0,1,1-101.05,51.1,72,72,0,0,1-40.2-79.49Z" transform="translate(-883.129 -149.12)" fill="#6c63ff"/>
    <path id="Path_402" data-name="Path 402" d="M981.2,274.75a71.77,71.77,0,0,1,6.35,46.71,72,72,0,1,1-101.05,51.1C872.372,366,977.582,267.54,981.2,274.75Z" transform="translate(-802.852 -149.12)" opacity="0.1"/>
    <ellipse id="Ellipse_97" data-name="Ellipse 97" cx="10.69" cy="10.69" rx="10.69" ry="10.69" transform="translate(86.52)" fill="#6c63ff"/>
    <ellipse id="Ellipse_98" data-name="Ellipse 98" cx="10.69" cy="10.69" rx="10.69" ry="10.69" transform="translate(24.08 6.86)" fill="#6c63ff"/>
    <ellipse id="Ellipse_99" data-name="Ellipse 99" cx="10.69" cy="10.69" rx="10.69" ry="10.69" transform="translate(0 102.92)" fill="#6c63ff"/>
    <ellipse id="Ellipse_100" data-name="Ellipse 100" cx="10.69" cy="10.69" rx="10.69" ry="10.69" transform="translate(32.5 150.89)" fill="#6c63ff"/>
    <ellipse id="Ellipse_101" data-name="Ellipse 101" cx="10.69" cy="10.69" rx="10.69" ry="10.69" transform="translate(76.9 250.52)" fill="#6c63ff"/>
    <ellipse id="Ellipse_102" data-name="Ellipse 102" cx="10.69" cy="10.69" rx="10.69" ry="10.69" transform="translate(76.9 250.52)" opacity="0.1"/>
    <ellipse id="Ellipse_103" data-name="Ellipse 103" cx="10.69" cy="10.69" rx="10.69" ry="10.69" transform="translate(175.62 137.68)" fill="#6c63ff"/>
    <ellipse id="Ellipse_104" data-name="Ellipse 104" cx="10.69" cy="10.69" rx="10.69" ry="10.69" transform="translate(175.62 137.68)" opacity="0.1"/>
    <path id="Path_403" data-name="Path 403" d="M926.881,473.32c7.11-3.59,9.26-13.76,5.11-23.14.22.38.43.77.63,1.18,4.91,9.7,2.88,20.6-4.53,24.35s-17.4-1.08-22.3-10.78c-.21-.4-.39-.81-.57-1.21C910.311,472.63,919.781,476.92,926.881,473.32Z" transform="translate(-729.171 -149.12)" opacity="0.1"/>
    <path id="Path_404" data-name="Path 404" d="M916.331,494.2c7.1-3.59,9.26-13.76,5.1-23.15.22.39.44.78.64,1.18,4.91,9.7,2.88,20.61-4.53,24.35s-17.4-1.07-22.31-10.78c-.2-.4-.39-.8-.57-1.21C899.761,493.5,909.221,497.79,916.331,494.2Z" transform="translate(-708.061 -149.12)" opacity="0.1"/>
    <path id="Path_405" data-name="Path 405" d="M905.774,515.07c7.1-3.59,9.26-13.76,5.1-23.14.22.38.44.77.64,1.18,4.91,9.7,2.87,20.6-4.54,24.35s-17.39-1.08-22.3-10.78c-.2-.4-.39-.81-.57-1.21C889.194,514.38,898.664,518.67,905.774,515.07Z" transform="translate(-686.944 -149.12)" opacity="0.1"/>
    <path id="Path_406" data-name="Path 406" d="M895.239,536c7.11-3.59,9.26-13.76,5.11-23.14.22.38.43.77.64,1.17,4.9,9.7,2.87,20.61-4.54,24.36s-17.4-1.08-22.3-10.79c-.21-.4-.39-.8-.57-1.21C878.7,535.25,888.169,539.54,895.239,536Z" transform="translate(-665.888 -149.12)" opacity="0.1"/>
    <path id="Path_407" data-name="Path 407" d="M884.661,556.82c7.11-3.59,9.26-13.76,5.11-23.14.22.38.43.77.63,1.18,4.91,9.7,2.88,20.6-4.53,24.35s-17.4-1.08-22.31-10.78c-.2-.4-.39-.81-.57-1.21C868.071,556.13,877.561,560.42,884.661,556.82Z" transform="translate(-644.721 -149.12)" opacity="0.1"/>
    <path id="Path_408" data-name="Path 408" d="M874.152,577.7c7.1-3.59,9.26-13.76,5.1-23.14.22.38.44.77.64,1.17,4.91,9.7,2.88,20.61-4.54,24.36S858,579,853,569.3c-.2-.4-.39-.8-.57-1.21C857.582,577,867,581.29,874.152,577.7Z" transform="translate(-623.652 -149.12)" opacity="0.1"/>
    <path id="Path_409" data-name="Path 409" d="M863.549,598.57c7.1-3.59,9.26-13.76,5.1-23.14.22.39.43.77.64,1.18,4.9,9.7,2.87,20.6-4.54,24.35s-17.4-1.08-22.3-10.78c-.21-.4-.39-.81-.57-1.21C846.969,597.88,856.439,602.17,863.549,598.57Z" transform="translate(-602.489 -149.12)" opacity="0.1"/>
    <path id="Path_410" data-name="Path 410" d="M852.981,619.45c7.11-3.59,9.26-13.76,5.11-23.14q.33.57.63,1.17c4.91,9.7,2.88,20.61-4.53,24.36s-17.4-1.08-22.31-10.79c-.2-.4-.38-.8-.56-1.21C836.411,618.75,845.881,623,852.981,619.45Z" transform="translate(-581.371 -149.12)" opacity="0.1"/>
    <path id="Path_411" data-name="Path 411" d="M846.051,633.17c7.1-3.6,9.26-13.76,5.1-23.15.22.39.44.78.64,1.18,4.91,9.7,2.88,20.61-4.53,24.35s-17.4-1.07-22.31-10.78c-.2-.4-.39-.8-.57-1.21C829.481,632.47,838.951,636.76,846.051,633.17Z" transform="translate(-567.501 -149.12)" opacity="0.1"/>
    <path id="Path_412" data-name="Path 412" d="M925.759,540.26a37.4,37.4,0,0,1-2-9.79,5.34,5.34,0,1,1,.81-10.62,37.31,37.31,0,0,1,19.64-25.31,5.344,5.344,0,0,1,9.54-4.82,5,5,0,0,1,.48,1.43A37.49,37.49,0,0,1,987.1,501a37.642,37.642,0,0,1,9.82-.29l4.33,19.71.26-19a37.42,37.42,0,1,1-20,72,5.28,5.28,0,0,1-2.25,2.16,5.34,5.34,0,0,1-7.32-6.88,37.351,37.351,0,0,1-4.8-3.92,37.45,37.45,0,0,1-39.31-19.83l20.15-3.39Z" transform="translate(-837.999 -149.12)" fill="#6c63ff"/>
    <g id="Group_55" data-name="Group 55" transform="translate(106.75 350.15)" opacity="0.1">
      <path id="Path_413" data-name="Path 413" d="M930.521,549.83c7.44-9.82,12-21.45,17.25-32.61a136.376,136.376,0,0,1,7.07-13.36l3.94-4.59c.66.56,1.32,1.14,2,1.75a37.638,37.638,0,0,1,9.82-.29l4.33,19.71.26-19a37.42,37.42,0,1,1-20,72,5.28,5.28,0,0,1-2.25,2.16,5.34,5.34,0,0,1-7.32-6.88,37.355,37.355,0,0,1-4.8-3.92,37.49,37.49,0,0,1-22.44-3.32,52.71,52.71,0,0,0,12.14-11.65Z" transform="translate(-918.381 -499.27)"/>
    </g>
    <path id="Path_414" data-name="Path 414" d="M769.068,507.63a5.34,5.34,0,0,1,4.78-7.75,37.37,37.37,0,0,1,11.7-20.83,37.521,37.521,0,0,1-1.1-11.7L804.1,464l-19.08-1.2a38.005,38.005,0,0,1,1.41-5.28,5.459,5.459,0,0,1-1.76-2,5.35,5.35,0,0,1,6.59-7.44A37.42,37.42,0,0,1,858.048,479a5.25,5.25,0,0,1,2.66,2.5,5.34,5.34,0,0,1-6.75,7.37,37.53,37.53,0,0,1-7.09,8.65,37.4,37.4,0,0,1-1.74,23.76l-26.35-6.84,23.5,12.36a37.42,37.42,0,0,1-68.91-16.26,5.33,5.33,0,0,1-4.3-2.91Z" transform="translate(-518.428 -149.12)" fill="#6c63ff"/>
    <path id="Path_415" data-name="Path 415" d="M782.312,507.63a5.34,5.34,0,0,1,4.78-7.75,37.37,37.37,0,0,1,11.7-20.83c-.16-.63-.3-1.25-.42-1.88a13.179,13.179,0,0,1,1.93,1.71c3.55,3.89,5.37,9.12,8.88,13.05,4.14,4.64,10.34,7.06,16.53,7.71s12.42-.3,18.53-1.49c5.06-1,10.19-2.16,15.32-1.67a8.565,8.565,0,0,1,1.46.19c-.3.29-.6.58-.91.86a37.4,37.4,0,0,1-1.74,23.76l-26.35-6.85,23.5,12.36a37.42,37.42,0,0,1-68.91-16.26,5.33,5.33,0,0,1-4.3-2.91Z" transform="translate(-531.672 -149.12)" opacity="0.1"/>
  </g>
  <g id="Group_59" data-name="Group 59" transform="translate(849.99 319.39)" opacity="0.1">
    <path id="Path_416" data-name="Path 416" d="M231.142,568.33c-1.28-3.89-6.47-5.68-11.59-4a12.776,12.776,0,0,0-2.13.92c-.33-.09-.67-.17-1-.23a11.26,11.26,0,0,0,.32-3.42,12.46,12.46,0,0,0,5.47-10.82,12.426,12.426,0,0,0,5.47-10.81,12,12,0,0,0,4.14-4.7c2.46-4.88,1.46-10.37-2.29-12.27s-8.77.55-11.24,5.43a12,12,0,0,0-1.32,6.13,12.37,12.37,0,0,0-5.47,10.81,12.4,12.4,0,0,0-5.47,10.82,12.37,12.37,0,0,0-5.47,10.81,12,12,0,0,0-4.15,4.7,12.662,12.662,0,0,0-1,2.9,10.659,10.659,0,0,0-2.23-2.39,12.577,12.577,0,0,0-.52-2.27c-1.69-5.12-6.2-8.24-10.09-7s-5.67,6.47-4,11.59a11.67,11.67,0,0,0,3.81,5.59,12.669,12.669,0,0,0,.52,2.26,11.1,11.1,0,0,0,5.11,6.42,12.839,12.839,0,0,0-.42,2,12.571,12.571,0,0,0-2.53,3.43,12.32,12.32,0,0,0-1.26,4.08,12.55,12.55,0,0,0-2.54,3.43,12.391,12.391,0,0,0-1.26,4.08,12.451,12.451,0,0,0-2.54,3.44c-2.47,4.88-1.45,10.38,2.28,12.26s8.77-.54,11.24-5.43a12.48,12.48,0,0,0,1.26-4.08,12.7,12.7,0,0,0,3.8-7.51,12.7,12.7,0,0,0,3.8-7.51,12.6,12.6,0,0,0,2.54-3.43,12.729,12.729,0,0,0,1.26-4.08,12.569,12.569,0,0,0,2.53-3.43,12.32,12.32,0,0,0,1.26-4.08,11.632,11.632,0,0,0,1.71-2,11.9,11.9,0,0,0,6.18-.38,13.289,13.289,0,0,0,2.14-.93,11.61,11.61,0,0,0,6.75-.24C229.282,576.73,232.412,572.22,231.142,568.33Z" transform="translate(-147.922 -376.48)" fill="#3f3d56"/>
    <g id="Group_57" data-name="Group 57" transform="translate(28.73 159.47)" opacity="0.1">
      <path id="Path_417" data-name="Path 417" d="M189.47,553a10.721,10.721,0,0,1-1.74,1.39,11.31,11.31,0,0,1-.56,4.24,11.935,11.935,0,0,0,1.06-1.73,12.46,12.46,0,0,0,1.24-3.9Z" transform="translate(-144.01 -535.95)"/>
      <path id="Path_418" data-name="Path 418" d="M184,542.2a11.211,11.211,0,0,1-1.74,1.38,11.39,11.39,0,0,1-.56,4.25A12.7,12.7,0,0,0,184,542.2Z" transform="translate(-133.07 -535.95)"/>
      <path id="Path_419" data-name="Path 419" d="M197.14,538.17a11.109,11.109,0,0,1,.08-2.22,12.661,12.661,0,0,0-2.41,3.31,13,13,0,0,0-.76,1.88,11.42,11.42,0,0,1,3.09-2.97Z" transform="translate(-158.64 -535.95)"/>
      <path id="Path_420" data-name="Path 420" d="M226.91,603.63a11.649,11.649,0,0,1,1.48-1.7,12.4,12.4,0,0,1,.44-2,13.229,13.229,0,0,0-1.15,1.86,13,13,0,0,0-.77,1.84Z" transform="translate(-223.11 -535.95)"/>
      <path id="Path_421" data-name="Path 421" d="M223.1,596.12a11.651,11.651,0,0,1,1.48-1.7,11.75,11.75,0,0,1,.42-2h0a12.67,12.67,0,0,0-1.88,3.68Z" transform="translate(-215.47 -535.95)"/>
      <path id="Path_422" data-name="Path 422" d="M179.952,563.84a10.115,10.115,0,0,1-1.73,1.37,10.9,10.9,0,0,1-.32,3.42,10.014,10.014,0,0,1,1,.23,13.255,13.255,0,0,1,2.14-.92c5.12-1.68,10.31.11,11.58,4a5.82,5.82,0,0,1,.17,3,6.93,6.93,0,0,0,1.66-6.61c-1.28-3.89-6.47-5.68-11.59-4a12.776,12.776,0,0,0-2.13.92c-.33-.09-.67-.17-1-.23a10.323,10.323,0,0,0,.22-1.18Z" transform="translate(-139.972 -535.95)"/>
      <path id="Path_423" data-name="Path 423" d="M232.63,607.4a12.79,12.79,0,0,0-1.15,1.87,13,13,0,0,0-.77,1.88,11.737,11.737,0,0,1,1.48-1.71A12.4,12.4,0,0,1,232.63,607.4Z" transform="translate(-230.71 -535.95)"/>
      <path id="Path_424" data-name="Path 424" d="M202.61,549a11.08,11.08,0,0,1,.08-2.22,12.49,12.49,0,0,0-2.41,3.31,12.873,12.873,0,0,0-.76,1.87A11.381,11.381,0,0,1,202.61,549Z" transform="translate(-169.58 -535.95)"/>
      <path id="Path_425" data-name="Path 425" d="M206.61,593.1a11.941,11.941,0,0,1-.49,2.2,12.629,12.629,0,0,0,1.88-3.77,11.715,11.715,0,0,1-1.39,1.57Z" transform="translate(-181.49 -535.95)"/>
      <path id="Path_426" data-name="Path 426" d="M214.22,608.12a12.662,12.662,0,0,1-.5,2.2,11.931,11.931,0,0,0,1.06-1.73,12.879,12.879,0,0,0,.82-2A13,13,0,0,1,214.22,608.12Z" transform="translate(-196.69 -535.95)"/>
      <path id="Path_427" data-name="Path 427" d="M210.41,600.61a11.941,11.941,0,0,1-.49,2.2,12.878,12.878,0,0,0,1.06-1.73,12.6,12.6,0,0,0,.82-2,11.722,11.722,0,0,1-1.39,1.53Z" transform="translate(-189.09 -535.95)"/>
      <path id="Path_428" data-name="Path 428" d="M202.86,585.58a11.859,11.859,0,0,1-.49,2.21,12.441,12.441,0,0,0,1-1.73,12.228,12.228,0,0,0,.83-2A11.131,11.131,0,0,1,202.86,585.58Z" transform="translate(-173.94 -535.95)"/>
      <path id="Path_429" data-name="Path 429" d="M216.63,566.59c3.89-1.28,8.4,1.84,10.08,7a12.583,12.583,0,0,1,.52,2.27,10.63,10.63,0,0,1,2.24,2.38,12.829,12.829,0,0,1,1.05-2.9c.17-.34.36-.67.56-1a10.629,10.629,0,0,0-2-2.1,12.579,12.579,0,0,0-.52-2.27c-1.69-5.12-6.2-8.24-10.09-7a6.93,6.93,0,0,0-4.34,5.26,5.929,5.929,0,0,1,2.5-1.64Z" transform="translate(-212.58 -535.95)"/>
      <path id="Path_430" data-name="Path 430" d="M213.55,570.62a11.109,11.109,0,0,1,.08-2.22,12.49,12.49,0,0,0-2.41,3.31,13,13,0,0,0-.76,1.88,11.28,11.28,0,0,1,3.09-2.97Z" transform="translate(-191.46 -535.95)"/>
      <path id="Path_431" data-name="Path 431" d="M208.08,559.8a11.129,11.129,0,0,1,.08-2.22,12.832,12.832,0,0,0-2.41,3.31,13,13,0,0,0-.76,1.88,11.42,11.42,0,0,1,3.09-2.97Z" transform="translate(-180.52 -535.95)"/>
      <path id="Path_432" data-name="Path 432" d="M218.02,615.63a11.9,11.9,0,0,1-.5,2.21,12.613,12.613,0,0,0,1.06-1.74,12.877,12.877,0,0,0,.82-2A13,13,0,0,1,218.02,615.63Z" transform="translate(-204.29 -535.95)"/>
    </g>
    <path id="Path_433" data-name="Path 433" d="M186.262,518.34a11.92,11.92,0,0,0,4.14-4.69c2.47-4.89,1.45-10.38-2.28-12.27s-8.77.54-11.24,5.43a11.93,11.93,0,0,0-1.32,6.12,12.4,12.4,0,0,0-5.47,10.82,12,12,0,0,0-4.15,4.69,13.229,13.229,0,0,0-.76,1.86,10.57,10.57,0,0,1,5.43-4,6.16,6.16,0,0,0,7.83,4,10.52,10.52,0,0,1,0,6.75,13.191,13.191,0,0,0,1-1.71,12,12,0,0,0,1.33-6.12,12.43,12.43,0,0,0,5.47-10.82Z" transform="translate(-95.572 -376.48)" fill="#3f3d56"/>
    <path id="Path_434" data-name="Path 434" d="M181.764,449a36.812,36.812,0,0,0,4.39-2.43l-16.28-11.9,19.14,9.85a36.34,36.34,0,0,0,13.59-25.34l-32.54.34,32.61-5.46a36.29,36.29,0,1,0-71.81,9.2,36.731,36.731,0,0,0-6.68,4l17,23.64-20.41-20.68a36.32,36.32,0,0,0-10.16,33.05,36.29,36.29,0,1,0,50.9,25.74,36.28,36.28,0,0,0,20.25-40Z" transform="translate(-30.954 -376.48)" fill="#6c63ff"/>
    <path id="Path_435" data-name="Path 435" d="M154.256,439.78a36.12,36.12,0,0,0-3.2,23.53,36.29,36.29,0,1,0,50.9,25.74C209.086,485.74,156.086,436.15,154.256,439.78Z" transform="translate(-71.396 -376.48)" opacity="0.1"/>
    <ellipse id="Ellipse_105" data-name="Ellipse 105" cx="5.39" cy="5.39" rx="5.39" ry="5.39" transform="translate(118.35)" fill="#6c63ff"/>
    <ellipse id="Ellipse_106" data-name="Ellipse 106" cx="5.39" cy="5.39" rx="5.39" ry="5.39" transform="translate(149.81 3.46)" fill="#6c63ff"/>
    <ellipse id="Ellipse_107" data-name="Ellipse 107" cx="5.39" cy="5.39" rx="5.39" ry="5.39" transform="translate(161.93 51.85)" fill="#6c63ff"/>
    <ellipse id="Ellipse_108" data-name="Ellipse 108" cx="5.39" cy="5.39" rx="5.39" ry="5.39" transform="translate(145.56 76.02)" fill="#6c63ff"/>
    <ellipse id="Ellipse_109" data-name="Ellipse 109" cx="5.39" cy="5.39" rx="5.39" ry="5.39" transform="translate(123.2 126.21)" fill="#6c63ff"/>
    <ellipse id="Ellipse_110" data-name="Ellipse 110" cx="5.39" cy="5.39" rx="5.39" ry="5.39" transform="translate(123.2 126.21)" opacity="0.1"/>
    <ellipse id="Ellipse_111" data-name="Ellipse 111" cx="5.39" cy="5.39" rx="5.39" ry="5.39" transform="translate(73.47 69.36)" fill="#6c63ff"/>
    <ellipse id="Ellipse_112" data-name="Ellipse 112" cx="5.39" cy="5.39" rx="5.39" ry="5.39" transform="translate(73.47 69.36)" opacity="0.1"/>
    <path id="Path_436" data-name="Path 436" d="M181.567,539.81c-3.58-1.81-4.66-6.93-2.57-11.66-.11.2-.22.39-.32.59-2.47,4.89-1.45,10.38,2.29,12.27s8.76-.54,11.23-5.43c.1-.2.2-.4.29-.61C189.917,539.46,185.147,541.62,181.567,539.81Z" transform="translate(-108.457 -376.48)" opacity="0.1"/>
    <path id="Path_437" data-name="Path 437" d="M186.9,550.33c-3.58-1.81-4.67-6.94-2.58-11.66-.11.19-.22.39-.32.59-2.47,4.89-1.45,10.38,2.29,12.27s8.76-.54,11.23-5.43c.11-.2.2-.41.29-.61C195.237,550,190.457,552.14,186.9,550.33Z" transform="translate(-119.097 -376.48)" opacity="0.1"/>
    <path id="Path_438" data-name="Path 438" d="M192.215,560.84c-3.58-1.81-4.67-6.93-2.57-11.66-.12.2-.22.39-.33.6-2.47,4.88-1.44,10.38,2.29,12.26s8.76-.54,11.23-5.43c.11-.2.2-.4.29-.61C200.565,560.49,195.795,562.65,192.215,560.84Z" transform="translate(-129.735 -376.48)" opacity="0.1"/>
    <path id="Path_439" data-name="Path 439" d="M197.532,571.36c-3.58-1.81-4.67-6.93-2.57-11.66-.11.19-.22.39-.32.59-2.48,4.89-1.45,10.38,2.28,12.27s8.77-.54,11.24-5.43c.1-.2.19-.41.28-.61C205.882,571,201.112,573.17,197.532,571.36Z" transform="translate(-140.372 -376.48)" opacity="0.1"/>
    <path id="Path_440" data-name="Path 440" d="M202.838,581.87c-3.58-1.81-4.66-6.93-2.57-11.65-.11.19-.22.39-.32.59-2.47,4.89-1.45,10.38,2.28,12.27s8.77-.55,11.24-5.43c.1-.21.19-.41.29-.61C211.188,581.52,206.418,583.68,202.838,581.87Z" transform="translate(-150.998 -376.48)" opacity="0.1"/>
    <path id="Path_441" data-name="Path 441" d="M208.158,592.39c-3.58-1.81-4.66-6.93-2.57-11.66-.11.2-.22.39-.32.59-2.47,4.89-1.45,10.38,2.28,12.27s8.77-.54,11.24-5.43c.1-.2.2-.4.29-.61C216.508,592,211.738,594.2,208.158,592.39Z" transform="translate(-161.638 -376.48)" opacity="0.1"/>
    <path id="Path_442" data-name="Path 442" d="M213.477,602.91c-3.57-1.81-4.66-6.94-2.57-11.66-.11.19-.22.39-.32.59-2.47,4.89-1.45,10.38,2.29,12.27s8.76-.55,11.23-5.43c.1-.21.2-.41.29-.61C221.827,602.55,217.057,604.72,213.477,602.91Z" transform="translate(-172.277 -376.48)" opacity="0.1"/>
    <path id="Path_443" data-name="Path 443" d="M218.8,613.42c-3.58-1.81-4.67-6.93-2.57-11.66-.12.2-.22.39-.33.6-2.47,4.88-1.44,10.38,2.29,12.26s8.76-.54,11.23-5.43c.11-.2.2-.4.29-.61C227.145,613.07,222.385,615.23,218.8,613.42Z" transform="translate(-182.915 -376.48)" opacity="0.1"/>
    <path id="Path_444" data-name="Path 444" d="M222.318,620.33c-3.58-1.81-4.66-6.93-2.57-11.66-.11.2-.22.39-.32.6-2.47,4.88-1.45,10.38,2.28,12.26s8.77-.54,11.24-5.43c.1-.2.2-.4.29-.61C230.7,620,225.928,622.14,222.318,620.33Z" transform="translate(-189.958 -376.48)" opacity="0.1"/>
    <path id="Path_445" data-name="Path 445" d="M181.925,573.53a18.569,18.569,0,0,0,1-4.93,2.69,2.69,0,1,0-.41-5.35,18.82,18.82,0,0,0-9.89-12.75,2.694,2.694,0,1,0-4.81-2.43,2.441,2.441,0,0,0-.24.72,18.92,18.92,0,0,0-16.56,5,18.68,18.68,0,0,0-5-.14l-2.18,9.92-.05-9.57a18.85,18.85,0,1,0,10.08,36.29,2.76,2.76,0,0,0,1.13,1.09,2.7,2.7,0,0,0,3.7-3.47,18.839,18.839,0,0,0,2.41-2,18.87,18.87,0,0,0,19.8-10l-10.15-1.71Z" transform="translate(-53.424 -376.48)" fill="#6c63ff"/>
    <g id="Group_58" data-name="Group 58" transform="translate(75.755 176.4)" opacity="0.1">
      <path id="Path_446" data-name="Path 446" d="M179.435,578.35c-3.75-5-6.05-10.8-8.69-16.42a66.7,66.7,0,0,0-3.56-6.74l-2-2.31c-.34.29-.67.58-1,.88a18.68,18.68,0,0,0-5-.14l-2.18,9.92-.03-9.54a18.85,18.85,0,1,0,10.08,36.29,2.76,2.76,0,0,0,1.13,1.09,2.7,2.7,0,0,0,3.7-3.47,18.839,18.839,0,0,0,2.41-2,19,19,0,0,0,11.31-1.67,26.588,26.588,0,0,1-6.17-5.89Z" transform="translate(-142.37 -552.88)"/>
    </g>
    <path id="Path_447" data-name="Path 447" d="M261.07,557.09a2.68,2.68,0,0,0-1.19-3.61,2.64,2.64,0,0,0-1.22-.29,18.85,18.85,0,0,0-5.89-10.5,18.71,18.71,0,0,0,.55-5.89l-9.89-1.66,9.61-.61a18.648,18.648,0,0,0-.72-2.66,2.64,2.64,0,0,0,.89-1,2.7,2.7,0,0,0-3.32-3.75,18.63,18.63,0,0,0-6.87-5.93,18.84,18.84,0,0,0-26.77,21.5,2.69,2.69,0,0,0,2.06,4.97,18.74,18.74,0,0,0,3.57,4.34,18.9,18.9,0,0,0,.87,12l13.23-3.48-11.83,6.23a18.86,18.86,0,0,0,32.83-1.54,19.11,19.11,0,0,0,1.94-6.65,2.67,2.67,0,0,0,2.15-1.47Z" transform="translate(-214.62 -376.48)" fill="#6c63ff"/>
    <path id="Path_448" data-name="Path 448" d="M254.434,557.09a2.68,2.68,0,0,0-1.19-3.61,2.64,2.64,0,0,0-1.22-.29,18.85,18.85,0,0,0-5.89-10.5c.08-.31.15-.63.21-.94a7.27,7.27,0,0,0-1,.86c-1.79,2-2.71,4.59-4.47,6.57a12.91,12.91,0,0,1-8.33,3.89,31.54,31.54,0,0,1-9.33-.75,27.351,27.351,0,0,0-7.72-.85l-.74.1.46.43a18.9,18.9,0,0,0,.87,12l13.26-3.48-11.83,6.23a18.86,18.86,0,0,0,32.83-1.54,19.11,19.11,0,0,0,1.94-6.65,2.67,2.67,0,0,0,2.15-1.47Z" transform="translate(-207.984 -376.48)" opacity="0.1"/>
  </g>
  <path id="Path_449" data-name="Path 449" d="M374.34,109a20.23,20.23,0,0,1,11.74,1.28,17.32,17.32,0,0,0,14.1,0,19.76,19.76,0,0,1,16.58.33,10.28,10.28,0,0,0,4.77,1.19c6.72,0,12.31-6.77,13.47-15.7a13.07,13.07,0,0,1-3.36-3.62c-3.94-6.35-10-10.43-16.89-10.43s-12.89,4-16.83,10.31a13,13,0,0,1-11.16,6.14h-.18C381.28,98.47,376.65,102.76,374.34,109Z" transform="translate(302.01 -57.09)" fill="#6c63ff" opacity="0.1"/>
  <path id="Path_450" data-name="Path 450" d="M377.18,81l10.86,6.89-6.59-12a10.74,10.74,0,0,1,6.57-2.34h.17a12.89,12.89,0,0,0,2.25-.17l3.69,2.34-1.58-2.87a13.19,13.19,0,0,0,6.44-4.85l6.61,4.13-4.16-7.57c3.85-4.63,9.05-7.47,14.76-7.47,6.85,0,13,4.08,16.9,10.43a12.62,12.62,0,0,0,11.17,6h.33c7.56,0,13.7,8.57,13.7,19.16s-6.14,19.15-13.7,19.15a10.28,10.28,0,0,1-4.77-1.19,19.72,19.72,0,0,0-16.58-.32,17.37,17.37,0,0,1-14.1,0,19.75,19.75,0,0,0-16.43.32A10.351,10.351,0,0,1,388,111.8c-7.57,0-13.7-8.57-13.7-19.15A24.359,24.359,0,0,1,377.18,81Z" transform="translate(278.75 -57.09)" fill="#6c63ff" opacity="0.1"/>
  <path id="Path_451" data-name="Path 451" d="M122.34,247.54a29,29,0,0,1,16.77,1.82,24.71,24.71,0,0,0,20.14-.05,28.22,28.22,0,0,1,23.68.47,14.75,14.75,0,0,0,6.82,1.7c9.6,0,17.59-9.67,19.25-22.43a18.41,18.41,0,0,1-4.8-5.17c-5.63-9.07-14.35-14.9-24.14-14.9s-18.4,5.76-24,14.73a18.52,18.52,0,0,1-16,8.77h-.25C132.23,232.47,125.61,238.6,122.34,247.54Z" transform="translate(780.01 -57.09)" fill="#6c63ff" opacity="0.1"/>
  <path id="Path_452" data-name="Path 452" d="M126.283,207.49l15.52,9.84-9.42-17.13a15.34,15.34,0,0,1,9.39-3.35h.25a18.161,18.161,0,0,0,3.22-.24l5.24,3.39-2.26-4.1a18.7,18.7,0,0,0,9.2-7l9.42,6-5.93-10.9c5.51-6.61,12.93-10.66,21.09-10.66,9.79,0,18.51,5.82,24.14,14.89a18.05,18.05,0,0,0,16,8.61h.53c10.81,0,19.57,12.25,19.57,27.37s-8.76,27.37-19.57,27.37a14.61,14.61,0,0,1-6.82-1.71,28.22,28.22,0,0,0-23.68-.46,24.71,24.71,0,0,1-20.14.05,28.25,28.25,0,0,0-23.48.45,14.65,14.65,0,0,1-6.74,1.67c-10.81,0-19.57-12.26-19.57-27.37a34.76,34.76,0,0,1,4.04-16.72Z" transform="translate(746.867 -57.09)" fill="#6c63ff" opacity="0.1"/>
  <path id="Path_453" data-name="Path 453" d="M897.28,148a20.24,20.24,0,0,0-11.74,1.28,17.29,17.29,0,0,1-14.09,0,19.76,19.76,0,0,0-16.58.33,10.31,10.31,0,0,1-4.77,1.19c-6.72,0-12.32-6.77-13.48-15.7a12.93,12.93,0,0,0,3.36-3.62C843.9,125.11,850.03,121,856.9,121s12.88,4,16.82,10.31a13,13,0,0,0,11.18,6.17h.17C890.39,137.47,895.03,141.76,897.28,148Z" transform="translate(-622.55 -57.09)" fill="#6c63ff" opacity="0.1"/>
  <path id="Path_454" data-name="Path 454" d="M894.5,120l-10.86,6.87,6.6-12a10.76,10.76,0,0,0-6.57-2.34h-.18a13,13,0,0,1-2.25-.17l-3.68,2.34,1.58-2.87a13.21,13.21,0,0,1-6.5-4.83l-6.59,4.18,4.17-7.57c-3.86-4.63-9-7.47-14.77-7.47-6.85,0-13,4.08-16.9,10.43a12.61,12.61,0,0,1-11.17,6h-.36c-7.57,0-13.7,8.57-13.7,19.16s6.13,19.15,13.7,19.15a10.34,10.34,0,0,0,4.77-1.19,19.72,19.72,0,0,1,16.58-.32,17.35,17.35,0,0,0,14.09,0,19.77,19.77,0,0,1,16.44.32,10.32,10.32,0,0,0,4.72,1.16c7.56,0,13.7-8.57,13.7-19.15A24.361,24.361,0,0,0,894.5,120Z" transform="translate(-599.288 -57.09)" fill="#6c63ff" opacity="0.1"/>
  <ellipse id="Ellipse_113" data-name="Ellipse 113" cx="115" cy="20" rx="115" ry="20" transform="translate(292.07 736.88)" fill="#6c63ff" opacity="0.1"/>
  <path id="Path_455" data-name="Path 455" d="M377.25,661.88l178.19-2.29-.53-4.57-8.61-75.39H389.81L378.3,655.02l-.88,5.72Z" transform="translate(90.01 0)" fill="#d0d2d5"/>
  <path id="Path_456" data-name="Path 456" d="M377.25,660.74h88.92l89.1-1.15-.53-4.57H378.13Z" transform="translate(90.18 0)" opacity="0.1"/>
  <rect id="Rectangle_225" data-name="Rectangle 225" width="236.45" height="5.71" transform="translate(438.7 656.17)" fill="#d0d2d5"/>
  <path id="Path_457" data-name="Path 457" d="M208.32,183.92A14.87,14.87,0,0,1,223.12,169H883.44a14.87,14.87,0,0,1,14.8,14.94V584.19H208.32Z" transform="translate(4.79 -57.09)" fill="#3f3d56"/>
  <path id="Path_458" data-name="Path 458" d="M898.24,580.19v46.88a14.8,14.8,0,0,1-14.8,14.8H223.12a14.8,14.8,0,0,1-14.8-14.8V580.19Z" transform="translate(4.79 -57.09)" fill="#d0d2d5"/>
  <rect id="Rectangle_226" data-name="Rectangle 226" width="636.23" height="359.81" transform="translate(238.24 137.01)" fill="#fff"/>
  <path id="Path_459" data-name="Path 459" d="M556.731,624.08a15.4,15.4,0,0,1-12.13-5.89h0a16.05,16.05,0,0,1-1.2-1.76l8.47-1.43-9.15.06a15.42,15.42,0,0,1-.29-12.21l12.27,6.36-11.32-8.32a15.42,15.42,0,1,1,25.47,17.26h0a15.4,15.4,0,0,1-12.12,5.93Z" transform="translate(-2.091 -57.09)" fill="#ff5f3a"/>
  <path id="Path_460" data-name="Path 460" d="M554.57,584.77l-71.09,71.4,10.91-71.4Z" transform="translate(-15.35 0)" opacity="0.1"/>
  <rect id="Rectangle_227" data-name="Rectangle 227" width="636.92" height="21.02" transform="translate(238.05 137.05)" fill="#444053" opacity="0.1"/>
  <rect id="Rectangle_228" data-name="Rectangle 228" width="191.9" height="12.79" rx="0.58" transform="translate(461.93 140.71)" fill="#6c63ff" opacity="0.3"/>
  <path id="Path_461" data-name="Path 461" d="M643.72,205.52h-.47l-.17-.15a3.89,3.89,0,0,0,.9-2.49,3.78,3.78,0,1,0-3.77,3.81,3.9,3.9,0,0,0,2.49-.91l.17.15v.47l2.93,2.93.87-.88Zm-3.51,0a2.62,2.62,0,1,1,1.866-.771,2.64,2.64,0,0,1-1.866.771Z" transform="translate(2.26 -57.09)" fill="#3f3d56"/>
  <ellipse id="Ellipse_114" data-name="Ellipse 114" cx="3.85" cy="3.85" rx="3.85" ry="3.85" transform="translate(266.67 143.71)" fill="#fa5959" opacity="0.8"/>
  <ellipse id="Ellipse_115" data-name="Ellipse 115" cx="3.85" cy="3.85" rx="3.85" ry="3.85" transform="translate(256.08 143.71)" fill="#fed253" opacity="0.8"/>
  <ellipse id="Ellipse_116" data-name="Ellipse 116" cx="3.85" cy="3.85" rx="3.85" ry="3.85" transform="translate(245.48 143.71)" fill="#8ccf4d" opacity="0.8"/>
  <path id="Path_462" data-name="Path 462" d="M517.78,348.49c8.73-11.6,21.38-18.92,35.46-18.92s26.73,7.32,35.46,18.92a38.282,38.282,0,0,1-70.92,0Z" transform="translate(4.87 -57.09)" fill="#ff5f3a"/>
  <path id="Path_463" data-name="Path 463" d="M593.309,355.28a9.172,9.172,0,0,0,1.76-1,7.06,7.06,0,0,0,1.94-2.51,7.18,7.18,0,1,1,11.72,1.74,8,8,0,0,1-1.7,1.37,4.94,4.94,0,0,0-1.91,2,14.442,14.442,0,0,1-3.32,4.36,29,29,0,0,1-4.55,3.2,66.306,66.306,0,0,1,3.74,19.56,27.051,27.051,0,0,1,7.62,1.23,12.289,12.289,0,0,1,3.53,1.76,8.469,8.469,0,0,1,.87-.06,7.19,7.19,0,1,1-6.73,9.72,4.59,4.59,0,0,0-3.71-3,16.757,16.757,0,0,0-1.85-.12,64.4,64.4,0,0,1-8.55,26.67c4.24,3.29,6.85,6.88,7.95,10.86a3,3,0,0,1,.57.41,6.811,6.811,0,0,1,.84.78,7.18,7.18,0,1,1-12.05,2.35,4.71,4.71,0,0,0-1.17-5.08,20.159,20.159,0,0,0-1.7-1.46c-8.11,9.47-17.76,15.54-29.81,16.26V380.07C572.729,379.2,586.609,368.83,593.309,355.28ZM493.479,387a7.927,7.927,0,0,1,.87.06,13.557,13.557,0,0,1,3.53-1.76,26.86,26.86,0,0,1,7.62-1.23,67.761,67.761,0,0,1,3.74-19.55,29,29,0,0,1-4.55-3.2,15.58,15.58,0,0,1-3.44-4.57,4.22,4.22,0,0,0-1.77-1.75h0a7.18,7.18,0,1,1,10-3.17,6.82,6.82,0,0,0,1.94,2.51,18.86,18.86,0,0,0,1.76,1.29c6.7,13.54,20.57,23.62,36.48,24.49v64.31c-12-.72-21.71-6.82-29.81-16.26-.63.5-1.16.95-1.61,1.37a4.86,4.86,0,0,0-1.26,5.23,7.18,7.18,0,1,1-12.08-2.33,6.81,6.81,0,0,1,.84-.78c.33-.26.57-.41.57-.41,1.1-4,3.7-7.57,8-10.86a64.4,64.4,0,0,1-8.55-26.67,15.9,15.9,0,0,0-1.77.12,4.8,4.8,0,0,0-3.85,3,7.18,7.18,0,0,1-13.85-2.18,7.29,7.29,0,0,1,7.19-7.66Z" transform="translate(4.871 -57.09)" fill="#ff5f3a"/>
  <path id="Path_464" data-name="Path 464" d="M600.68,802.31a9.56,9.56,0,0,1,2.17-2.41c4.37-4.13,6.4-10.19,7.48-16.13s1.39-12,3.12-17.81a58.74,58.74,0,0,1,3.52-8.67c1-2.14,2.26-6.33,4.09-7.83a2.7,2.7,0,0,1,1.26-.61,14.851,14.851,0,0,1,3.62-4.82c2.86-2.59,6.35-4.65,8.26-8a18,18,0,0,1,1.93-3.29c1.29-1.42,3.33-2,4.52-3.5,1.55-1.94,1.2-4.72,1-7.19s0-5.43,2.14-6.73c1.28-.79,2.93-.71,4.26-1.41,2-1,2.79-3.52,2.75-5.77s-.74-4.44-.92-6.69c-.56-7.16,4.16-14.28,2.34-21.22-.69-2.63-2.27-4.91-3.44-7.36a15.372,15.372,0,0,1-1-2.54,35.734,35.734,0,0,1-9.74,2.35c5.51-12.36,4.11-26.72,6.68-40l-.33-.45a20.84,20.84,0,0,1-4.22-11.86c0-4.94,2.31-9.56,3.35-14.4.89-4.11.85-8.41,2-12.45a37.653,37.653,0,0,1,3.16-7.22q1.87-3.47,3.93-6.83,1.92-6.36,3.85-12.72c1.8-5.95,3.65-12,7.15-17.14,1.28-1.88,1.67-5.7,3.64-6.84a8.81,8.81,0,0,1,5.2-.91c2.78-1.56,5.22-3.81,5.57-6.89a6.679,6.679,0,0,0-.2-2h-.34c-4.4-.4-6.63-4.28-8.92-7.68-3.7-5.5-2.29-12.94,0-19.2a13,13,0,0,1,3-5.29c3.21-3,8.29-2.34,12.43-3.79,1.39-.48,2.69-1.21,4.11-1.55,2.75-.64,5.63.26,8.15,1.53s4.87,2.91,7.51,3.91,5.9,1.79,6.55,4.5a5,5,0,0,1-.22,2.73,10.18,10.18,0,0,1-3.09,4.46,17.81,17.81,0,0,1-10.87,24.82c-.76,1.22-1.47,2.46-2.12,3.73-1.16,2.24-2.14,4.88-1.74,7.28a22.443,22.443,0,0,1,2,2.45c2.87,4,4.5,8.69,6,13.37a141.651,141.651,0,0,1,4.83,18.27c2.44,5.19,5.42,10.15,7.19,15.6a35.211,35.211,0,0,0,9.38-1.26l8.44-1.91c2.94-.67,6-1.39,8.3-3.33,1.22-1,2.17-2.33,3.41-3.32s3.73-2.15,5.09-1.33a4,4,0,0,1,.69.53c1.24-2.51,2.42-5,3.86-7.43,2.07-3.4,5.15-6.51,9.05-7.16a9.21,9.21,0,0,1,6.79,1.58c2.28,1.62,3.71,5,2,7.28a13.294,13.294,0,0,1-1.39,1.42,29.207,29.207,0,0,0-3.09,4.29,21.91,21.91,0,0,1-13.49,8.76l.35,1c.71,2.08,2.22,4.59,1.84,6.75l-37.54,12.85a23.129,23.129,0,0,1-7.56,1.67,12.207,12.207,0,0,1-3-.4v2c-.1,13.19,2,26.29,2.39,39.47.07,2.41,0,5-1.52,6.88-1.7,2.06-4.72,2.47-7.35,2a17.092,17.092,0,0,1-1.86-.42,69.327,69.327,0,0,0-1.92,10.11L692.68,696a27.138,27.138,0,0,0-.39,5.54c.29,4.19,2.5,7.94,4.1,11.81s2.55,8.5.45,12.12c-.66,1.12-1.57,2.07-2.16,3.23a13.141,13.141,0,0,0-1,5.68q-.23,8.08-.44,16.18a1.83,1.83,0,0,1,1.26.25c2.08,1.62,1.85,9.33,2,11.72.16,4,0,8.08.22,12.12a72.216,72.216,0,0,0,2.61,16.09,10.29,10.29,0,0,0,2.29,4.61,9.738,9.738,0,0,0,4.07,2.11,46.488,46.488,0,0,0,15.41,2.1c2.11-.07,4.31-.27,6.27.53s3.54,3,2.83,5c-.61,1.68-2.46,2.48-4.13,3.11a65.526,65.526,0,0,0-11,5.06,29.738,29.738,0,0,1-4.25,2.41,21.914,21.914,0,0,1-4.38,1.08l-17.73,3.06c-3.63.62-8,1-10.31-2-1.25-1.62-1.43-3.82-1.37-5.88.1-4,.9-8.07.38-12.07a37.145,37.145,0,0,0-1.86-6.93q-2.65-7.87-5.32-15.73c-1.78-5.26-3.58-10.57-4.27-16.09-.25-2-.23-4.28,1.3-5.53a3.542,3.542,0,0,1,1.32-.68c.06-4.82.69-9.65.42-14.47-.07-1.2-.19-2.4-.29-3.61a17.611,17.611,0,0,0-2.47,2.92c-1.71,2.68-2.34,6.22-4.95,8-2.22,1.52-5.51,1.44-7.07,3.64a10.259,10.259,0,0,0-1.12,2.71,19.321,19.321,0,0,1-4,6.35,32,32,0,0,1-2.47,6.34q-2.21,4.67-4.4,9.31a108.574,108.574,0,0,1-5,9.77,27.552,27.552,0,0,0-3.35,6.46c-1.41,4.94.89,10.36,4.53,14s8.44,5.73,13.17,7.68a3.71,3.71,0,0,1,1.34.8,2.591,2.591,0,0,1,.61,1.74,5.645,5.645,0,0,1-4.08,5,15.26,15.26,0,0,1-6.83.25c-12.78-1.55-25.52-4.67-36.82-10.88a13,13,0,0,1-4.39-3.39,5.13,5.13,0,0,1-.73-5.21Z" transform="translate(-258.98 -57.09)" fill="url(#linear-gradient)"/>
  <path id="Path_465" data-name="Path 465" d="M719.1,578.06q-3.2,4.91-6,10.06a37,37,0,0,0-3.17,7.17c-1.16,4-1.13,8.27-2,12.35-1,4.8-3.34,9.38-3.34,14.3a20.561,20.561,0,0,0,4.22,11.76,55.82,55.82,0,0,0,8.82,9.1,187.618,187.618,0,0,0,12.48-61.21c.1-2.9.12-5.89-.94-8.6-.65-1.7-3.77-6.36-5.78-4.53-.73.67-.92,3.69-1.37,4.7a36.119,36.119,0,0,1-2.92,4.9Z" transform="translate(-323.386 -57.09)" fill="#2f2e41"/>
  <path id="Path_466" data-name="Path 466" d="M719.1,578.06q-3.2,4.91-6,10.06a37,37,0,0,0-3.17,7.17c-1.16,4-1.13,8.27-2,12.35-1,4.8-3.34,9.38-3.34,14.3a20.561,20.561,0,0,0,4.22,11.76,55.82,55.82,0,0,0,8.82,9.1,187.618,187.618,0,0,0,12.48-61.21c.1-2.9.12-5.89-.94-8.6-.65-1.7-3.77-6.36-5.78-4.53-.73.67-.92,3.69-1.37,4.7a36.119,36.119,0,0,1-2.92,4.9Z" transform="translate(-323.386 -57.09)" opacity="0.1"/>
  <path id="Path_467" data-name="Path 467" d="M356.317,441.63c7.91,7.9,8.86,11.38,13.61,12.95s21.84,10.42,16.47,20.23l-14.44,9.54-.42.28-2.21,6.64,21.84,38.88s36-16.46,39.53,7.89,1.29,31,2.24,44-.31,16.76,2.86,16.76,4.42-8.54,4.42-8.54.2-.39.55-1.12c4.71-9.79,36.68-81.66-14.53-131.06,0,0-23.72-1.56-29.43-28.76-3.94-18.8-17.72-17.18-26.88-13.35a30.379,30.379,0,0,0-8.22,4.83,40.48,40.48,0,0,0-5.89,7C353.207,431.92,351.787,437.09,356.317,441.63Z" transform="translate(303.034 -57.09)" fill="#d0d2d5"/>
  <path id="Path_468" data-name="Path 468" d="M367.543,484.63l-2.21,6.64,21.84,38.88s36-16.46,39.53,7.89,1.29,31,2.24,44-.31,16.76,2.86,16.76,4.42-8.54,4.42-8.54.2-.39.55-1.12c1.59-12.16,9.65-83.29-19.57-79.51,0,0-23.71,11.08-27.5,6.66-3-3.5-16.32-23.63-21.74-31.89Z" transform="translate(307.028 -57.09)" opacity="0.1"/>
  <path id="Path_469" data-name="Path 469" d="M408.95,427.74l14.44,16.41s16.77,22.44,20.25,21.49a16.233,16.233,0,0,1,3.17-.37,6.16,6.16,0,0,0,4-10.38c-5.72-6-16.26-17.39-16.95-19.92s-7.4-13.62-10.76-19.05a30.38,30.38,0,0,0-8.22,4.83,40.483,40.483,0,0,0-5.93,6.99Z" transform="translate(249.9 -57.09)" opacity="0.1"/>
  <path id="Path_470" data-name="Path 470" d="M417.377,663.83c2.45,4.9,15,23.28,20.49,31.31l2.57,3.78s1,6.64,17.39-1.59,401.48-170.72,401.48-170.72l2.61-7.84-19-28.45L420.847,653.39S414.207,657.5,417.377,663.83Z" transform="translate(-167.087 -57.09)" fill="#454b69"/>
  <path id="Path_471" data-name="Path 471" d="M416.52,695.14l2.57,3.78s1,6.64,17.39-1.59S837.96,526.61,837.96,526.61l2.61-7.84Z" transform="translate(-145.74 -57.09)" opacity="0.1"/>
  <path id="Path_472" data-name="Path 472" d="M609.648,589c3.91-.64,8.25-.33,11.29,2.21a9.29,9.29,0,0,1,3.24,6.16c.26,2.77-1.35,6.06-4.13,6.27a13.159,13.159,0,0,1-2-.13,29.886,29.886,0,0,0-5.24.44,21.39,21.39,0,0,1-18.23-7.36c-2.39-3,.76-4.3,3.58-4.9C602.018,590.87,605.788,589.62,609.648,589Z" transform="translate(-106.588 -57.09)" fill="#fbbebe"/>
  <path id="Path_473" data-name="Path 473" d="M699.724,679.31l-2.48,17.62a26.843,26.843,0,0,0-.38,5.51c.29,4.15,2.5,7.87,4.09,11.71s2.56,8.44.45,12c-.65,1.11-1.56,2.06-2.15,3.21a12.92,12.92,0,0,0-1,5.63l-.68,25a157.323,157.323,0,0,1-23.18-.13,1.29,1.29,0,0,1-.84-.26,1.36,1.36,0,0,1-.29-.91c-.34-5.85.68-11.71.35-17.56-.12-2.14-.42-4.27-.46-6.42-.12-8.71,4.18-17.24,2.88-25.85a56.994,56.994,0,0,0-1.6-6.43c-4.11-15-3.24-30.76-2.33-46.25a1.09,1.09,0,0,1,.2-.7,1.06,1.06,0,0,1,.54-.29,28.45,28.45,0,0,1,25.78,4.9c1.09.88,3.84,1.73,4.56,2.78,1,1.46-.31,2.92-.89,4.47a56.89,56.89,0,0,0-2.57,11.97Z" transform="translate(-263.544 -57.09)" fill="#3f3d56"/>
  <path id="Path_474" data-name="Path 474" d="M699.724,679.31l-2.48,17.62a26.843,26.843,0,0,0-.38,5.51c.29,4.15,2.5,7.87,4.09,11.71s2.56,8.44.45,12c-.65,1.11-1.56,2.06-2.15,3.21a12.92,12.92,0,0,0-1,5.63l-.68,25a157.323,157.323,0,0,1-23.18-.13,1.29,1.29,0,0,1-.84-.26,1.36,1.36,0,0,1-.29-.91c-.34-5.85.68-11.71.35-17.56-.12-2.14-.42-4.27-.46-6.42-.12-8.71,4.18-17.24,2.88-25.85a56.994,56.994,0,0,0-1.6-6.43c-4.11-15-3.24-30.76-2.33-46.25a1.09,1.09,0,0,1,.2-.7,1.06,1.06,0,0,1,.54-.29,28.45,28.45,0,0,1,25.78,4.9c1.09.88,3.84,1.73,4.56,2.78,1,1.46-.31,2.92-.89,4.47a56.89,56.89,0,0,0-2.57,11.97Z" transform="translate(-263.544 -57.09)" opacity="0.1"/>
  <path id="Path_475" data-name="Path 475" d="M711.513,674c1.17,2.43,2.74,4.69,3.44,7.3,1.82,6.89-2.89,14-2.33,21.06.18,2.23.87,4.4.92,6.63s-.77,4.71-2.75,5.74c-1.33.68-3,.61-4.25,1.39-2.11,1.29-2.35,4.22-2.14,6.68s.56,5.21-1,7.13c-1.19,1.49-3.23,2.07-4.51,3.48a17.164,17.164,0,0,0-1.93,3.26c-1.91,3.34-5.4,5.38-8.26,8s-5.28,6.46-4,10.09c.94,2.66,3.58,4.3,6.12,5.55a64.932,64.932,0,0,0,14.57,5.15,3.519,3.519,0,0,0,1.67.09,3.569,3.569,0,0,0,1.46-1c2.95-2.89,6-5.92,7.36-9.81a10.071,10.071,0,0,1,1.12-2.68c1.56-2.19,4.85-2.11,7.07-3.62,2.6-1.77,3.23-5.28,4.93-7.93s4.19-4.23,6-6.56c3.06-3.88,3.81-9.06,6-13.49.93-1.88,2.12-3.64,2.86-5.6a30.581,30.581,0,0,0,1.37-7.24c1.41-11.68,5-23.44,2.74-35-.5-2.54-1.27-5-1.59-7.62-.55-4.53.32-9.17-.35-13.69a3.77,3.77,0,0,0-1.51-2.91,4,4,0,0,0-1.72-.35,117.264,117.264,0,0,0-17.78.4c-3,.29-6.36.9-8.16,3.35-1.53,2.1-1.45,4.91-1.94,7.46-.61,3.14-2.2,4.85-3.87,7.31S710.283,671.46,711.513,674Z" transform="translate(-321.703 -57.09)" fill="#3f3d56"/>
  <path id="Path_476" data-name="Path 476" d="M645.89,755.26c-1.58,0-3.33-.1-4.55.9-1.52,1.25-1.54,3.54-1.3,5.49.7,5.48,2.49,10.75,4.28,16l5.32,15.61a36.655,36.655,0,0,1,1.86,6.88c.52,4-.28,8-.38,12,0,2,.13,4.22,1.38,5.83,2.26,2.91,6.67,2.57,10.3,2l17.71-3a21.068,21.068,0,0,0,4.38-1.07,30.61,30.61,0,0,0,4.25-2.39,65.411,65.411,0,0,1,11-5c1.66-.62,3.52-1.41,4.12-3.08.71-2-.87-4.2-2.83-5s-4.15-.6-6.27-.54a47,47,0,0,1-15.4-2.08,9.74,9.74,0,0,1-4.06-2.1,10,10,0,0,1-2.34-4.71,70.167,70.167,0,0,1-2.68-16c-.21-4-.07-8-.23-12-.1-2.37.13-10-1.95-11.63-1.59-1.22-8.13,2.15-10.28,2.64A50,50,0,0,1,645.89,755.26Z" transform="translate(-233.01 -57.09)" fill="#2f2e41"/>
  <path id="Path_477" data-name="Path 477" d="M729.9,766.38c-1.73,5.73-2,11.79-3.12,17.68s-3.1,11.9-7.47,16a9.868,9.868,0,0,0-2.17,2.4,5.06,5.06,0,0,0,.75,5.23,13.129,13.129,0,0,0,4.39,3.37c11.29,6.16,24,9.27,36.81,10.81a15.511,15.511,0,0,0,6.82-.25c2.18-.74,4.11-2.7,4.07-5a2.55,2.55,0,0,0-.6-1.73,3.731,3.731,0,0,0-1.35-.79c-4.72-1.94-9.51-4.05-13.16-7.63s-5.94-9-4.53-13.86a27.418,27.418,0,0,1,3.37-6.41,108.34,108.34,0,0,0,5-9.69l4.4-9.23c1.29-2.7,2.59-5.48,2.81-8.46a40.6,40.6,0,0,1-16.22-2.6,25.505,25.505,0,0,1-6.67-4c-1.7-1.42-3.25-4.07-5.54-2.22-1.84,1.48-3,5.65-4.08,7.76a57,57,0,0,0-3.51,8.62Z" transform="translate(-375.362 -57.09)" fill="#2f2e41"/>
  <path id="Path_478" data-name="Path 478" d="M679.759,537.19c-.44,3.84-4.16,6.37-7.71,7.89l22.47,7.17c-1.45-2.78-.28-6.18,1.16-9a50.93,50.93,0,0,1,4-6.41c.22-.31.47-.7.31-1.06a1.12,1.12,0,0,0-.63-.49c-4.62-2.06-9.38-4.19-14.43-4.94-1.46-.21-4.22-.79-5.31.69S679.969,535.42,679.759,537.19Z" transform="translate(-260.739 -57.09)" fill="#fbbebe"/>
  <path id="Path_479" data-name="Path 479" d="M679.759,537.19c-.44,3.84-4.16,6.37-7.71,7.89l22.47,7.17c-1.45-2.78-.28-6.18,1.16-9a50.93,50.93,0,0,1,4-6.41c.22-.31.47-.7.31-1.06a1.12,1.12,0,0,0-.63-.49c-4.62-2.06-9.38-4.19-14.43-4.94-1.46-.21-4.22-.79-5.31.69S679.969,535.42,679.759,537.19Z" transform="translate(-260.739 -57.09)" opacity="0.1"/>
  <ellipse id="Ellipse_117" data-name="Ellipse 117" cx="17.62" cy="17.62" rx="17.62" ry="17.62" transform="translate(414.46 447.97)" fill="#fbbebe"/>
  <path id="Path_480" data-name="Path 480" d="M730.722,667.68c-1.71,2.05-4.72,2.45-7.35,2-6.15-1-11.18-5.53-17.2-7.16-7.38-2-15.19.57-22.16,3.72s-13.9,7-21.52,7.54c6.89-15.36,2.95-33.84,9.54-49.33,1.61-3.79,3.86-7.44,4.22-11.54.45-5.09-2.09-10-2.48-15.06-.36-4.51,1-9,2.3-13.3l4.82-15.84c1.8-5.91,3.65-11.92,7.14-17,1.29-1.87,1.68-5.66,3.64-6.79,4.28-2.47,10.77.64,15.41.81s8.87,3.47,11.58,7.2c2.87,3.94,4.5,8.63,6,13.27a126.156,126.156,0,0,1,5.33,21.23c.15,1.08.28,2.16.38,3.25,1,10.27-.46,20.6-.54,30.92v.07c-.1,13.09,2,26.1,2.39,39.18C732.262,663.24,732.2,665.85,730.722,667.68Z" transform="translate(-283.372 -57.09)" fill="#2f2e41"/>
  <path id="Path_481" data-name="Path 481" d="M691.855,621.61c-3.45-.87-6.57-3.1-9.25-5.54a38.673,38.673,0,0,1-6.14-7,49.865,49.865,0,0,1-5.29-11.07,129.361,129.361,0,0,1-7-32.27c-.26-3-.34-6.22,1.45-8.6a7.24,7.24,0,0,1,8.75-2.12c2.36,1.15,3.89,3.48,5.31,5.71,2.81,4.42,5.64,8.9,7.45,13.82.8,2.18,1.39,4.42,2.17,6.61a60.992,60.992,0,0,0,2.74,6.33c.15,1.08.28,2.16.38,3.25C693.355,601,691.935,611.29,691.855,621.61Z" transform="translate(-245.425 -57.09)" opacity="0.1"/>
  <path id="Path_482" data-name="Path 482" d="M618.4,555.2c-1.79,2.38-1.71,5.63-1.46,8.59a129.179,129.179,0,0,0,7,32.27,49.432,49.432,0,0,0,5.29,11.16,39.069,39.069,0,0,0,6.14,7c3.4,3.1,7.54,5.87,12.15,5.91a23.161,23.161,0,0,0,7.56-1.65l37.55-12.78c.38-2.14-1.13-4.64-1.84-6.7l-2-5.93c-.57-1.64-1.23-3.41-2.72-4.3s-3.85.33-5.09,1.32-2.18,2.29-3.4,3.3c-2.31,1.92-5.36,2.64-8.3,3.3l-8.43,1.89a35.2,35.2,0,0,1-9.38,1.25c-2.35-7.18-6.82-13.5-9.35-20.62-.78-2.18-1.37-4.43-2.18-6.61-1.8-4.92-4.64-9.39-7.45-13.82-1.41-2.22-2.94-4.55-5.31-5.71A7.23,7.23,0,0,0,618.4,555.2Z" transform="translate(-198.153 -57.09)" fill="#2f2e41"/>
  <path id="Path_483" data-name="Path 483" d="M679.138,526.66a8.888,8.888,0,0,1,1.06-3.3,2.77,2.77,0,0,1,3-1.32c1.76.55,2.35,3.27,4.19,3.36,1.24.06,2.13-1.2,2.52-2.38s.6-2.53,1.53-3.36a5.7,5.7,0,0,1,2.18-1c4.27-1.35,8.68-3.84,10.1-8.09a4.84,4.84,0,0,0,.23-2.71c-.65-2.69-4-3.5-6.55-4.47s-5-2.63-7.5-3.89-5.4-2.15-8.15-1.51a42.48,42.48,0,0,0-4.11,1.53c-4.14,1.44-9.21.77-12.42,3.76a12.83,12.83,0,0,0-3,5.24c-2.24,6.22-3.66,13.6.05,19.06,2.29,3.37,4.51,7.22,8.91,7.63C676.3,535.64,678.328,531,679.138,526.66Z" transform="translate(-252.678 -57.09)" fill="#2f2e41"/>
  <g id="Group_60" data-name="Group 60" transform="translate(413.17 447.46)" opacity="0.1">
    <path id="Path_484" data-name="Path 484" d="M662.263,520.9c.39-1.18.6-2.53,1.52-3.36a5.7,5.7,0,0,1,2.18-1c4.28-1.35,8.68-3.84,10.11-8.09a4.931,4.931,0,0,0,.22-2.71,3.39,3.39,0,0,0-.53-1.19c1.63.71,3.05,1.65,3.45,3.31a4.84,4.84,0,0,1-.23,2.71c-1.42,4.25-5.83,6.74-10.1,8.09a5.7,5.7,0,0,0-2.18,1c-.93.83-1.13,2.17-1.53,3.36s-1.28,2.44-2.52,2.38-1.84-1.19-2.63-2.14A3.183,3.183,0,0,0,662.263,520.9Z" transform="translate(-641.153 -504.55)"/>
    <path id="Path_485" data-name="Path 485" d="M683.97,533.06c5.14.47,7.17-4.21,8-8.52a8.7,8.7,0,0,1,1-3.3,2.78,2.78,0,0,1,3-1.32,5.32,5.32,0,0,1,2.21,2,3,3,0,0,0-2.26,1.4,8.888,8.888,0,0,0-1.06,3.3c-.81,4.31-2.84,9-8,8.52a8.25,8.25,0,0,1-5.28-2.74A7.458,7.458,0,0,0,683.97,533.06Z" transform="translate(-681.58 -504.55)"/>
  </g>
  <ellipse id="Ellipse_118" data-name="Ellipse 118" cx="32.29" cy="6.21" rx="32.29" ry="6.21" transform="translate(177.3 649.57)" fill="#ff5f3a"/>
  <ellipse id="Ellipse_119" data-name="Ellipse 119" cx="3.76" cy="4.92" rx="3.76" ry="4.92" transform="translate(206.37 648.22)" fill="#3f3d56"/>
  <ellipse id="Ellipse_120" data-name="Ellipse 120" cx="3.76" cy="4.92" rx="3.76" ry="4.92" transform="translate(206.37 642.2)" fill="#3f3d56"/>
  <ellipse id="Ellipse_121" data-name="Ellipse 121" cx="3.76" cy="4.92" rx="3.76" ry="4.92" transform="translate(206.37 636.19)" fill="#3f3d56"/>
  <ellipse id="Ellipse_122" data-name="Ellipse 122" cx="3.76" cy="4.92" rx="3.76" ry="4.92" transform="translate(206.37 630.17)" fill="#3f3d56"/>
  <ellipse id="Ellipse_123" data-name="Ellipse 123" cx="3.76" cy="4.92" rx="3.76" ry="4.92" transform="translate(206.37 624.15)" fill="#3f3d56"/>
  <ellipse id="Ellipse_124" data-name="Ellipse 124" cx="3.76" cy="4.92" rx="3.76" ry="4.92" transform="translate(206.37 618.14)" fill="#3f3d56"/>
  <ellipse id="Ellipse_125" data-name="Ellipse 125" cx="3.76" cy="4.92" rx="3.76" ry="4.92" transform="translate(206.37 612.12)" fill="#3f3d56"/>
  <path id="Path_486" data-name="Path 486" d="M887.024,633a18.193,18.193,0,0,1-1.4-2.06l9.88-1.62-10.69.07a18.11,18.11,0,0,1-.34-14.27l14.34,7.44-13.22-9.72A18,18,0,1,1,915.314,633a17.923,17.923,0,0,1,2.06,3.28l-12.83,6.67,13.68-4.59a18,18,0,0,1-2.91,16.88,18,18,0,1,1-28.31,0,18,18,0,0,1,0-22.27Z" transform="translate(-690.964 -57.09)" fill="#ff5f3a" opacity="0.85"/>
  <path id="Path_487" data-name="Path 487" d="M919.155,644.1a17.909,17.909,0,0,1-3.88,11.14,18,18,0,1,1-28.31,0C884.575,652.17,919.155,642.08,919.155,644.1Z" transform="translate(-690.925 -57.09)" fill="#ff5f3a"/>
  <ellipse id="Ellipse_126" data-name="Ellipse 126" cx="46.49" cy="8.94" rx="46.49" ry="8.94" transform="translate(827.79 767.93)" fill="#ff5f3a"/>
  <ellipse id="Ellipse_127" data-name="Ellipse 127" cx="5.41" cy="7.09" rx="5.41" ry="7.09" transform="translate(869.65 765.98)" fill="#3f3d56"/>
  <ellipse id="Ellipse_128" data-name="Ellipse 128" cx="5.41" cy="7.09" rx="5.41" ry="7.09" transform="translate(869.65 757.32)" fill="#3f3d56"/>
  <ellipse id="Ellipse_129" data-name="Ellipse 129" cx="5.41" cy="7.09" rx="5.41" ry="7.09" transform="translate(869.65 748.66)" fill="#3f3d56"/>
  <ellipse id="Ellipse_130" data-name="Ellipse 130" cx="5.41" cy="7.09" rx="5.41" ry="7.09" transform="translate(869.65 740)" fill="#3f3d56"/>
  <ellipse id="Ellipse_131" data-name="Ellipse 131" cx="5.41" cy="7.09" rx="5.41" ry="7.09" transform="translate(869.65 731.34)" fill="#3f3d56"/>
  <ellipse id="Ellipse_132" data-name="Ellipse 132" cx="5.41" cy="7.09" rx="5.41" ry="7.09" transform="translate(869.65 722.67)" fill="#3f3d56"/>
  <ellipse id="Ellipse_133" data-name="Ellipse 133" cx="5.41" cy="7.09" rx="5.41" ry="7.09" transform="translate(869.65 714.01)" fill="#3f3d56"/>
  <path id="Path_488" data-name="Path 488" d="M215.725,718.93a27.232,27.232,0,0,1-2-3l14.22-2.34-15.38.12a26,26,0,0,1-.49-20.55L232.7,703.9l-19-14a25.93,25.93,0,1,1,42.83,29,25.825,25.825,0,0,1,3,4.72l-18.47,9.6,19.69-6.61a25.93,25.93,0,0,1-4.26,24.39,25.93,25.93,0,1,1-40.76,0,25.92,25.92,0,0,1,0-32.06Z" transform="translate(639.075 -57.09)" fill="#ff5f3a" opacity="0.85"/>
  <path id="Path_489" data-name="Path 489" d="M262.095,735a25.847,25.847,0,0,1-5.547,16,25.93,25.93,0,1,1-40.763,0C212.335,746.58,262.095,732.05,262.095,735Z" transform="translate(639.015 -57.09)" fill="#ff5f3a"/>
</svg>
