<svg xmlns="http://www.w3.org/2000/svg" xmlns:xlink="http://www.w3.org/1999/xlink" width="270" height="170" viewBox="0 0 270 170">
  <defs>
    <style>
      .cls-1 {
        clip-path: url(#clip-www-fix);
      }

      .cls-2, .cls-4 {
        fill: none;
      }

      .cls-3 {
        fill: #ff5f3a;
      }

      .cls-4 {
        stroke: #0d0d0d;
        stroke-miterlimit: 10;
        stroke-width: 2px;
      }
    </style>
    <clipPath id="clip-www-fix">
      <rect width="270" height="170"/>
    </clipPath>
  </defs>
  <g id="www-fix" class="cls-1">
    <g id="Group_47" data-name="Group 47" transform="translate(-14778 -10071)">
      <rect id="Rectangle_203" data-name="Rectangle 203" class="cls-2" width="260" height="160" transform="translate(14783 10081)"/>
      <g id="Layer_2" data-name="Layer 2" transform="translate(14805.154 10061.289)">
        <g id="Layer_2-2" data-name="Layer 2" transform="translate(0.857 0.002)">
          <path id="Path_69" data-name="Path 69" class="cls-2" d="M209.8,78.747c0,38.092-28.811,26.377-85.675,68.967S38.45,116.839,38.45,78.747,99.78-24.838,124.125,9.78,209.8,40.656,209.8,78.747Z" transform="translate(-20.438 -0.002)"/>
          <path id="Path_70" data-name="Path 70" class="cls-3" d="M5.595,197.168l4.413-.034a1.126,1.126,0,0,1,1.083.786l5.352,16.5a1.131,1.131,0,0,0,2.156,0l5.184-16.487a1.131,1.131,0,0,1,1.064-.8H29.9a1.136,1.136,0,0,1,1.083.786L36.255,214.4a1.131,1.131,0,0,0,2.156,0l5.223-16.478a1.131,1.131,0,0,1,1.078-.791h4.255a1.136,1.136,0,0,1,1.068,1.519l-9.1,25.1a1.131,1.131,0,0,1-1.064.743h-5.2a1.126,1.126,0,0,1-1.073-.767L28.382,208.39a1.131,1.131,0,0,0-2.147,0l-5.165,15.332a1.131,1.131,0,0,1-1.073.771H14.784a1.136,1.136,0,0,1-1.064-.743L4.536,198.692a1.136,1.136,0,0,1,1.059-1.524Z" transform="translate(-2.737 -102.678)"/>
          <path id="Path_71" data-name="Path 71" class="cls-3" d="M105.462,197.174l4.413-.034a1.136,1.136,0,0,1,1.088.786l5.347,16.5a1.136,1.136,0,0,0,2.161,0l5.18-16.487a1.136,1.136,0,0,1,1.083-.791h5.041a1.126,1.126,0,0,1,1.078.786l5.271,16.482a1.136,1.136,0,0,0,2.161,0l5.218-16.478a1.14,1.14,0,0,1,1.083-.791h4.255a1.131,1.131,0,0,1,1.064,1.519l-9.1,25.1a1.136,1.136,0,0,1-1.064.743h-5.2a1.136,1.136,0,0,1-1.073-.767L128.249,208.4a1.131,1.131,0,0,0-2.147,0l-5.165,15.332a1.121,1.121,0,0,1-1.073.771h-5.2a1.14,1.14,0,0,1-1.064-.743l-9.195-25.054a1.131,1.131,0,0,1,1.054-1.538Z" transform="translate(-54.753 -102.683)"/>
          <path id="Path_72" data-name="Path 72" class="cls-3" d="M205.642,197.174l4.413-.034a1.136,1.136,0,0,1,1.088.786l5.347,16.5a1.131,1.131,0,0,0,2.156,0l5.184-16.487a1.131,1.131,0,0,1,1.078-.791h5.045a1.136,1.136,0,0,1,1.078.786l5.271,16.482a1.136,1.136,0,0,0,2.161,0l5.218-16.478a1.131,1.131,0,0,1,1.078-.791h4.255a1.136,1.136,0,0,1,1.068,1.519l-9.1,25.1a1.131,1.131,0,0,1-1.064.743h-5.2a1.126,1.126,0,0,1-1.073-.767L228.429,208.4a1.131,1.131,0,0,0-2.147,0l-5.165,15.332a1.131,1.131,0,0,1-1.073.771h-5.2a1.136,1.136,0,0,1-1.064-.743l-9.195-25.054a1.131,1.131,0,0,1,1.054-1.538Z" transform="translate(-106.933 -102.683)"/>
          <circle id="Ellipse_9" data-name="Ellipse 9" class="cls-3" cx="6.852" cy="6.852" r="6.852" transform="translate(140.265 111.725)"/>
          <path id="Path_73" data-name="Path 73" class="cls-3" d="M308.914,168.255l9.626-9.626a2.271,2.271,0,0,0,0-3.205l-8.395-8.39a2.257,2.257,0,0,0-3.2,0l-9.612,9.621a16.674,16.674,0,0,1,20.541-20.541l49.3-49.3a2.266,2.266,0,0,1,3.2,0l8.395,8.395a2.266,2.266,0,0,1,0,3.205l-49.337,49.3a16.674,16.674,0,0,1-20.541,20.541Z" transform="translate(-154.96 -44.873)"/>
          <path id="Path_74" data-name="Path 74" class="cls-4" d="M1.96,192.3l4.413-.034a1.136,1.136,0,0,1,1.088.781l5.352,16.5a1.131,1.131,0,0,0,2.156,0l5.179-16.487a1.136,1.136,0,0,1,1.083-.791h5.041a1.126,1.126,0,0,1,1.078.786l5.271,16.482a1.131,1.131,0,0,0,2.156,0L40,193.07a1.126,1.126,0,0,1,1.078-.791h4.255A1.131,1.131,0,0,1,46.4,193.8l-9.1,25.093a1.131,1.131,0,0,1-1.064.747h-5.2a1.136,1.136,0,0,1-1.073-.767l-5.208-15.332a1.136,1.136,0,0,0-2.147,0l-5.165,15.332a1.131,1.131,0,0,1-1.073.771h-5.2A1.14,1.14,0,0,1,10.1,218.9L.925,193.827A1.136,1.136,0,0,1,1.96,192.3Z" transform="translate(-0.857 -100.147)"/>
          <path id="Path_75" data-name="Path 75" class="cls-4" d="M101.794,192.3l4.413-.034a1.121,1.121,0,0,1,1.083.781l5.352,16.5a1.131,1.131,0,0,0,2.156,0l5.2-16.5a1.131,1.131,0,0,1,1.078-.791h5.041a1.136,1.136,0,0,1,1.068.786l5.271,16.482a1.131,1.131,0,0,0,2.156,0l5.223-16.473a1.126,1.126,0,0,1,1.078-.791h4.255a1.136,1.136,0,0,1,1.068,1.519l-9.1,25.092a1.126,1.126,0,0,1-1.064.747h-5.189a1.126,1.126,0,0,1-1.073-.767L124.6,203.525a1.136,1.136,0,0,0-2.147,0l-5.165,15.332a1.14,1.14,0,0,1-1.073.771h-5.2a1.136,1.136,0,0,1-1.064-.743l-9.195-25.054a1.131,1.131,0,0,1,1.035-1.533Z" transform="translate(-52.854 -100.141)"/>
          <path id="Path_76" data-name="Path 76" class="cls-4" d="M201.985,192.3l4.418-.034a1.126,1.126,0,0,1,1.083.781l5.352,16.5a1.131,1.131,0,0,0,2.156,0l5.179-16.487a1.136,1.136,0,0,1,1.083-.791h5.064a1.126,1.126,0,0,1,1.078.786l5.271,16.482a1.131,1.131,0,0,0,2.156,0l5.223-16.473a1.126,1.126,0,0,1,1.078-.791h4.255a1.131,1.131,0,0,1,1.064,1.519l-9.1,25.078a1.131,1.131,0,0,1-1.064.747h-5.223a1.136,1.136,0,0,1-1.073-.767l-5.208-15.332a1.131,1.131,0,0,0-2.142,0l-5.17,15.332a1.131,1.131,0,0,1-1.073.771h-5.194a1.131,1.131,0,0,1-1.064-.743l-9.2-25.059a1.136,1.136,0,0,1,1.059-1.524Z" transform="translate(-105.029 -100.147)"/>
          <circle id="Ellipse_10" data-name="Ellipse 10" class="cls-4" cx="6.852" cy="6.852" r="6.852" transform="translate(138.516 109.392)"/>
          <path id="Path_77" data-name="Path 77" class="cls-4" d="M305.243,163.38l9.621-9.621a2.266,2.266,0,0,0,0-3.205l-8.39-8.395a2.271,2.271,0,0,0-3.205,0l-9.626,9.626a16.674,16.674,0,0,1,20.541-20.541l49.3-49.3a2.271,2.271,0,0,1,3.205,0l8.395,8.395a2.266,2.266,0,0,1,0,3.2l-49.3,49.3a16.674,16.674,0,0,1-20.541,20.541Z" transform="translate(-153.038 -42.335)"/>
        </g>
      </g>
    </g>
  </g>
</svg>
